	.include "MPlayDef.s"

	.equ	Jackroom_grp, voicegroup115
	.equ	Jackroom_pri, 0
	.equ	Jackroom_rev, 0
	.equ	Jackroom_mvl, 87
	.equ	Jackroom_key, 0
	.equ	Jackroom_tbs, 1
	.equ	Jackroom_exg, 0
	.equ	Jackroom_cmp, 1

	.section .rodata
	.global	Jackroom
	.align	2

@**************** Track 1 (Midi-Chn.1) ****************@

Jackroom_1:
	.byte	KEYSH , Jackroom_key+0
Jackroom_1_B1:
@ 000   ----------------------------------------
	.byte	TEMPO , 140*Jackroom_tbs/2
	.byte		VOICE , 73
	.byte		VOL   , 130*Jackroom_mvl/mxv
	.byte		N24   , Fn3 , v100
	.byte	W24
	.byte		N12   
	.byte		N12   , Gs3 
	.byte	W24
	.byte		        Fn3 
	.byte		N12   , Gs3 
	.byte	W24
@ 001   ----------------------------------------
Jackroom_1_001:
	.byte		N24   , Cn3 , v100
	.byte	W24
	.byte		N12   , Fn3 
	.byte		N12   , Gs3 
	.byte	W24
	.byte		        Fn3 
	.byte		N12   , Gs3 
	.byte	W24
	.byte	PEND
@ 002   ----------------------------------------
Jackroom_1_002:
	.byte		N24   , Fn3 , v100
	.byte	W24
	.byte		N12   
	.byte		N12   , Gs3 
	.byte	W24
	.byte		        Fn3 
	.byte		N12   , Gs3 
	.byte	W24
	.byte	PEND
@ 003   ----------------------------------------
	.byte	PATT
	 .word	Jackroom_1_001
@ 004   ----------------------------------------
Jackroom_1_004:
	.byte		N24   , Cs3 , v100
	.byte	W24
	.byte		N12   
	.byte		N12   , En3 
	.byte	W24
	.byte		        Cs3 
	.byte		N12   , En3 
	.byte	W24
	.byte	PEND
@ 005   ----------------------------------------
Jackroom_1_005:
	.byte		N24   , Gs2 , v100
	.byte	W24
	.byte		N12   , Cs3 
	.byte		N12   , En3 
	.byte	W24
	.byte		        Cs3 
	.byte		N12   , En3 
	.byte	W24
	.byte	PEND
@ 006   ----------------------------------------
	.byte	PATT
	 .word	Jackroom_1_004
@ 007   ----------------------------------------
	.byte	PATT
	 .word	Jackroom_1_005
@ 008   ----------------------------------------
	.byte	PATT
	 .word	Jackroom_1_002
@ 009   ----------------------------------------
	.byte	PATT
	 .word	Jackroom_1_001
@ 010   ----------------------------------------
	.byte	PATT
	 .word	Jackroom_1_002
@ 011   ----------------------------------------
	.byte	PATT
	 .word	Jackroom_1_001
@ 012   ----------------------------------------
	.byte	PATT
	 .word	Jackroom_1_004
@ 013   ----------------------------------------
	.byte	PATT
	 .word	Jackroom_1_005
@ 014   ----------------------------------------
	.byte	PATT
	 .word	Jackroom_1_004
@ 015   ----------------------------------------
	.byte	PATT
	 .word	Jackroom_1_005
@ 016   ----------------------------------------
	.byte	PATT
	 .word	Jackroom_1_002
@ 017   ----------------------------------------
	.byte	PATT
	 .word	Jackroom_1_001
@ 018   ----------------------------------------
	.byte	PATT
	 .word	Jackroom_1_002
@ 019   ----------------------------------------
	.byte	PATT
	 .word	Jackroom_1_001
@ 020   ----------------------------------------
	.byte	PATT
	 .word	Jackroom_1_004
@ 021   ----------------------------------------
	.byte	PATT
	 .word	Jackroom_1_005
@ 022   ----------------------------------------
	.byte	PATT
	 .word	Jackroom_1_004
@ 023   ----------------------------------------
	.byte	PATT
	 .word	Jackroom_1_005
@ 024   ----------------------------------------
	.byte	PATT
	 .word	Jackroom_1_002
@ 025   ----------------------------------------
	.byte	PATT
	 .word	Jackroom_1_001
@ 026   ----------------------------------------
	.byte	PATT
	 .word	Jackroom_1_002
@ 027   ----------------------------------------
	.byte	PATT
	 .word	Jackroom_1_001
@ 028   ----------------------------------------
	.byte	PATT
	 .word	Jackroom_1_004
@ 029   ----------------------------------------
	.byte	PATT
	 .word	Jackroom_1_005
@ 030   ----------------------------------------
	.byte	PATT
	 .word	Jackroom_1_004
@ 031   ----------------------------------------
	.byte	PATT
	 .word	Jackroom_1_005
@ 032   ----------------------------------------
	.byte	PATT
	 .word	Jackroom_1_002
@ 033   ----------------------------------------
	.byte	PATT
	 .word	Jackroom_1_001
@ 034   ----------------------------------------
	.byte	PATT
	 .word	Jackroom_1_002
@ 035   ----------------------------------------
	.byte	PATT
	 .word	Jackroom_1_001
@ 036   ----------------------------------------
	.byte	PATT
	 .word	Jackroom_1_004
@ 037   ----------------------------------------
	.byte	PATT
	 .word	Jackroom_1_005
@ 038   ----------------------------------------
	.byte	PATT
	 .word	Jackroom_1_004
@ 039   ----------------------------------------
	.byte		N24   , Gs2 , v100
	.byte	W24
	.byte		N12   , Cs3 
	.byte		N12   , En3 
	.byte	W24
	.byte		        Cs3 
	.byte		N12   , En3 
	.byte	W12
	.byte	GOTO
	 .word	Jackroom_1_B1
Jackroom_1_B2:
	.byte	W12
@ 040   ----------------------------------------
Jackroom_1_040:
	.byte	W68
	.byte	W03
	.byte	W01
	.byte	PEND
@ 041   ----------------------------------------
	.byte	W72
@ 042   ----------------------------------------
	.byte	W72
@ 043   ----------------------------------------
	.byte	W72
@ 044   ----------------------------------------
	.byte	W72
@ 045   ----------------------------------------
	.byte	W72
@ 046   ----------------------------------------
	.byte	W72
@ 047   ----------------------------------------
	.byte	W72
@ 048   ----------------------------------------
	.byte	W72
@ 049   ----------------------------------------
	.byte	W72
@ 050   ----------------------------------------
	.byte	W72
@ 051   ----------------------------------------
	.byte	W72
@ 052   ----------------------------------------
	.byte	W72
@ 053   ----------------------------------------
	.byte	W72
@ 054   ----------------------------------------
	.byte	W72
@ 055   ----------------------------------------
	.byte	W72
@ 056   ----------------------------------------
	.byte	W72
@ 057   ----------------------------------------
	.byte	W72
@ 058   ----------------------------------------
	.byte	W72
@ 059   ----------------------------------------
	.byte	W72
@ 060   ----------------------------------------
	.byte	W72
@ 061   ----------------------------------------
	.byte	W72
@ 062   ----------------------------------------
	.byte	W72
@ 063   ----------------------------------------
	.byte	W72
@ 064   ----------------------------------------
	.byte	W72
@ 065   ----------------------------------------
	.byte	W72
@ 066   ----------------------------------------
	.byte	W72
@ 067   ----------------------------------------
	.byte	W72
@ 068   ----------------------------------------
	.byte	W72
@ 069   ----------------------------------------
	.byte	W72
@ 070   ----------------------------------------
	.byte	W72
@ 071   ----------------------------------------
	.byte	W72
@ 072   ----------------------------------------
	.byte	W72
@ 073   ----------------------------------------
	.byte	W72
@ 074   ----------------------------------------
	.byte	W72
@ 075   ----------------------------------------
	.byte	W72
@ 076   ----------------------------------------
	.byte	W72
@ 077   ----------------------------------------
	.byte	W72
@ 078   ----------------------------------------
	.byte	W72
@ 079   ----------------------------------------
	.byte	W72
@ 080   ----------------------------------------
	.byte	W72
@ 081   ----------------------------------------
	.byte	PATT
	 .word	Jackroom_1_040
@ 082   ----------------------------------------
	.byte	W72
@ 083   ----------------------------------------
	.byte	W72
@ 084   ----------------------------------------
	.byte	W72
@ 085   ----------------------------------------
	.byte	W72
@ 086   ----------------------------------------
	.byte	W72
@ 087   ----------------------------------------
	.byte	W72
@ 088   ----------------------------------------
	.byte	W72
@ 089   ----------------------------------------
	.byte	W72
@ 090   ----------------------------------------
	.byte	W72
@ 091   ----------------------------------------
	.byte	W72
@ 092   ----------------------------------------
	.byte	W72
@ 093   ----------------------------------------
	.byte	W72
@ 094   ----------------------------------------
	.byte	W72
@ 095   ----------------------------------------
	.byte	W72
@ 096   ----------------------------------------
	.byte	W72
@ 097   ----------------------------------------
	.byte	W72
@ 098   ----------------------------------------
	.byte	W72
@ 099   ----------------------------------------
	.byte	W72
@ 100   ----------------------------------------
	.byte	W72
@ 101   ----------------------------------------
	.byte	W72
@ 102   ----------------------------------------
	.byte	W72
@ 103   ----------------------------------------
	.byte	W72
@ 104   ----------------------------------------
	.byte	W72
@ 105   ----------------------------------------
	.byte	W72
@ 106   ----------------------------------------
	.byte	W72
@ 107   ----------------------------------------
	.byte	W72
@ 108   ----------------------------------------
	.byte	W72
@ 109   ----------------------------------------
	.byte	W72
@ 110   ----------------------------------------
	.byte	W72
@ 111   ----------------------------------------
	.byte	W72
@ 112   ----------------------------------------
	.byte	W72
@ 113   ----------------------------------------
	.byte	W72
@ 114   ----------------------------------------
	.byte	W72
@ 115   ----------------------------------------
	.byte	W72
@ 116   ----------------------------------------
	.byte	W72
@ 117   ----------------------------------------
	.byte	W72
@ 118   ----------------------------------------
	.byte	W72
@ 119   ----------------------------------------
	.byte	W72
@ 120   ----------------------------------------
	.byte	W72
@ 121   ----------------------------------------
	.byte	W72
@ 122   ----------------------------------------
	.byte	PATT
	 .word	Jackroom_1_040
@ 123   ----------------------------------------
	.byte	W72
@ 124   ----------------------------------------
	.byte	W72
@ 125   ----------------------------------------
	.byte	W72
@ 126   ----------------------------------------
	.byte	W72
@ 127   ----------------------------------------
	.byte	W72
@ 128   ----------------------------------------
	.byte	W72
@ 129   ----------------------------------------
	.byte	W72
@ 130   ----------------------------------------
	.byte	W72
@ 131   ----------------------------------------
	.byte	W72
@ 132   ----------------------------------------
	.byte	W72
@ 133   ----------------------------------------
	.byte	W72
@ 134   ----------------------------------------
	.byte	W72
@ 135   ----------------------------------------
	.byte	W72
@ 136   ----------------------------------------
	.byte	W72
@ 137   ----------------------------------------
	.byte	W72
@ 138   ----------------------------------------
	.byte	W72
@ 139   ----------------------------------------
	.byte	W72
@ 140   ----------------------------------------
	.byte	W72
@ 141   ----------------------------------------
	.byte	W72
@ 142   ----------------------------------------
	.byte	W72
@ 143   ----------------------------------------
	.byte	W72
@ 144   ----------------------------------------
	.byte	W72
@ 145   ----------------------------------------
	.byte	W72
@ 146   ----------------------------------------
	.byte	W72
@ 147   ----------------------------------------
	.byte	W72
@ 148   ----------------------------------------
	.byte	W72
@ 149   ----------------------------------------
	.byte	W72
@ 150   ----------------------------------------
	.byte	W72
@ 151   ----------------------------------------
	.byte	W72
@ 152   ----------------------------------------
	.byte	W72
@ 153   ----------------------------------------
	.byte	W72
@ 154   ----------------------------------------
	.byte	W72
@ 155   ----------------------------------------
	.byte	W72
@ 156   ----------------------------------------
	.byte	W72
@ 157   ----------------------------------------
	.byte	W72
@ 158   ----------------------------------------
	.byte	W72
@ 159   ----------------------------------------
	.byte	W72
@ 160   ----------------------------------------
	.byte	W72
@ 161   ----------------------------------------
	.byte	W72
@ 162   ----------------------------------------
	.byte	W72
@ 163   ----------------------------------------
	.byte	PATT
	 .word	Jackroom_1_040
@ 164   ----------------------------------------
	.byte	W72
@ 165   ----------------------------------------
	.byte	W72
@ 166   ----------------------------------------
	.byte	W72
@ 167   ----------------------------------------
	.byte	W72
@ 168   ----------------------------------------
	.byte	W72
@ 169   ----------------------------------------
	.byte	W72
@ 170   ----------------------------------------
	.byte	W72
@ 171   ----------------------------------------
	.byte	W72
@ 172   ----------------------------------------
	.byte	W72
@ 173   ----------------------------------------
	.byte	W72
@ 174   ----------------------------------------
	.byte	W72
@ 175   ----------------------------------------
	.byte	W72
@ 176   ----------------------------------------
	.byte	W72
@ 177   ----------------------------------------
	.byte	W72
@ 178   ----------------------------------------
	.byte	W72
@ 179   ----------------------------------------
	.byte	W72
@ 180   ----------------------------------------
	.byte	W72
@ 181   ----------------------------------------
	.byte	W72
@ 182   ----------------------------------------
	.byte	W72
@ 183   ----------------------------------------
	.byte	W72
@ 184   ----------------------------------------
	.byte	W72
@ 185   ----------------------------------------
	.byte	W72
@ 186   ----------------------------------------
	.byte	W72
@ 187   ----------------------------------------
	.byte	W72
@ 188   ----------------------------------------
	.byte	W72
@ 189   ----------------------------------------
	.byte	W72
@ 190   ----------------------------------------
	.byte	W72
@ 191   ----------------------------------------
	.byte	W72
@ 192   ----------------------------------------
	.byte	W72
@ 193   ----------------------------------------
	.byte	W72
@ 194   ----------------------------------------
	.byte	W72
@ 195   ----------------------------------------
	.byte	W72
@ 196   ----------------------------------------
	.byte	W72
@ 197   ----------------------------------------
	.byte	W72
@ 198   ----------------------------------------
	.byte	W72
@ 199   ----------------------------------------
	.byte	W72
@ 200   ----------------------------------------
	.byte	W72
@ 201   ----------------------------------------
	.byte	W72
@ 202   ----------------------------------------
	.byte	W72
@ 203   ----------------------------------------
	.byte	W72
@ 204   ----------------------------------------
	.byte	PATT
	 .word	Jackroom_1_040
@ 205   ----------------------------------------
	.byte	W72
@ 206   ----------------------------------------
	.byte	W72
@ 207   ----------------------------------------
	.byte	W72
@ 208   ----------------------------------------
	.byte	W72
@ 209   ----------------------------------------
	.byte	W72
@ 210   ----------------------------------------
	.byte	W72
@ 211   ----------------------------------------
	.byte	W72
@ 212   ----------------------------------------
	.byte	W72
@ 213   ----------------------------------------
	.byte	W72
@ 214   ----------------------------------------
	.byte	W72
@ 215   ----------------------------------------
	.byte	W72
@ 216   ----------------------------------------
	.byte	W72
@ 217   ----------------------------------------
	.byte	W72
@ 218   ----------------------------------------
	.byte	W72
@ 219   ----------------------------------------
	.byte	W72
@ 220   ----------------------------------------
	.byte	W72
@ 221   ----------------------------------------
	.byte	W72
@ 222   ----------------------------------------
	.byte	W72
@ 223   ----------------------------------------
	.byte	W72
@ 224   ----------------------------------------
	.byte	W72
@ 225   ----------------------------------------
	.byte	W72
@ 226   ----------------------------------------
	.byte	W72
@ 227   ----------------------------------------
	.byte	W72
@ 228   ----------------------------------------
	.byte	W72
@ 229   ----------------------------------------
	.byte	W72
@ 230   ----------------------------------------
	.byte	W72
@ 231   ----------------------------------------
	.byte	W72
@ 232   ----------------------------------------
	.byte	W72
@ 233   ----------------------------------------
	.byte	W72
@ 234   ----------------------------------------
	.byte	W72
@ 235   ----------------------------------------
	.byte	W72
@ 236   ----------------------------------------
	.byte	W72
@ 237   ----------------------------------------
	.byte	W72
@ 238   ----------------------------------------
	.byte	W72
@ 239   ----------------------------------------
	.byte	W72
@ 240   ----------------------------------------
	.byte	W72
@ 241   ----------------------------------------
	.byte	W72
@ 242   ----------------------------------------
	.byte	W72
@ 243   ----------------------------------------
	.byte	W72
@ 244   ----------------------------------------
	.byte	W72
@ 245   ----------------------------------------
	.byte	PATT
	 .word	Jackroom_1_040
@ 246   ----------------------------------------
	.byte	W72
@ 247   ----------------------------------------
	.byte	W72
@ 248   ----------------------------------------
	.byte	W72
@ 249   ----------------------------------------
	.byte	W72
@ 250   ----------------------------------------
	.byte	W72
@ 251   ----------------------------------------
	.byte	W72
@ 252   ----------------------------------------
	.byte	W72
@ 253   ----------------------------------------
	.byte	W72
@ 254   ----------------------------------------
	.byte	W72
@ 255   ----------------------------------------
	.byte	W72
@ 256   ----------------------------------------
	.byte	W72
@ 257   ----------------------------------------
	.byte	W72
@ 258   ----------------------------------------
	.byte	W72
@ 259   ----------------------------------------
	.byte	W72
@ 260   ----------------------------------------
	.byte	W72
@ 261   ----------------------------------------
	.byte	W72
@ 262   ----------------------------------------
	.byte	W72
@ 263   ----------------------------------------
	.byte	W72
@ 264   ----------------------------------------
	.byte	W72
@ 265   ----------------------------------------
	.byte	W72
@ 266   ----------------------------------------
	.byte	W72
@ 267   ----------------------------------------
	.byte	W72
@ 268   ----------------------------------------
	.byte	W72
@ 269   ----------------------------------------
	.byte	W72
@ 270   ----------------------------------------
	.byte	W72
@ 271   ----------------------------------------
	.byte	W72
@ 272   ----------------------------------------
	.byte	W72
@ 273   ----------------------------------------
	.byte	W72
@ 274   ----------------------------------------
	.byte	W72
@ 275   ----------------------------------------
	.byte	W72
@ 276   ----------------------------------------
	.byte	W72
@ 277   ----------------------------------------
	.byte	W72
@ 278   ----------------------------------------
	.byte	W72
@ 279   ----------------------------------------
	.byte	W72
@ 280   ----------------------------------------
	.byte	W72
@ 281   ----------------------------------------
	.byte	W72
@ 282   ----------------------------------------
	.byte	W72
@ 283   ----------------------------------------
	.byte	W72
@ 284   ----------------------------------------
	.byte	W72
@ 285   ----------------------------------------
	.byte	W72
@ 286   ----------------------------------------
	.byte	W68
	.byte	W03
	.byte	FINE

@**************** Track 2 (Midi-Chn.2) ****************@

Jackroom_2:
	.byte	KEYSH , Jackroom_key+0
Jackroom_2_B1:
@ 000   ----------------------------------------
	.byte		VOICE , 73
	.byte		VOL   , 119*Jackroom_mvl/mxv
	.byte	W12
	.byte		N24   , Fn3 , v052
	.byte	W24
	.byte		N12   
	.byte		N12   , Gs3 
	.byte	W24
	.byte		        Fn3 
	.byte		N12   , Gs3 
	.byte	W12
@ 001   ----------------------------------------
Jackroom_2_001:
	.byte	W12
	.byte		N24   , Cn3 , v052
	.byte	W24
	.byte		N12   , Fn3 
	.byte		N12   , Gs3 
	.byte	W24
	.byte		        Fn3 
	.byte		N12   , Gs3 
	.byte	W12
	.byte	PEND
@ 002   ----------------------------------------
Jackroom_2_002:
	.byte	W12
	.byte		N24   , Fn3 , v052
	.byte	W24
	.byte		N12   
	.byte		N12   , Gs3 
	.byte	W24
	.byte		        Fn3 
	.byte		N12   , Gs3 
	.byte	W12
	.byte	PEND
@ 003   ----------------------------------------
	.byte	PATT
	 .word	Jackroom_2_001
@ 004   ----------------------------------------
Jackroom_2_004:
	.byte	W12
	.byte		N24   , Cs3 , v052
	.byte	W24
	.byte		N12   
	.byte		N12   , En3 
	.byte	W24
	.byte		        Cs3 
	.byte		N12   , En3 
	.byte	W12
	.byte	PEND
@ 005   ----------------------------------------
Jackroom_2_005:
	.byte	W12
	.byte		N24   , Gs2 , v052
	.byte	W24
	.byte		N12   , Cs3 
	.byte		N12   , En3 
	.byte	W24
	.byte		        Cs3 
	.byte		N12   , En3 
	.byte	W12
	.byte	PEND
@ 006   ----------------------------------------
	.byte	PATT
	 .word	Jackroom_2_004
@ 007   ----------------------------------------
	.byte	PATT
	 .word	Jackroom_2_005
@ 008   ----------------------------------------
	.byte	PATT
	 .word	Jackroom_2_002
@ 009   ----------------------------------------
	.byte	PATT
	 .word	Jackroom_2_001
@ 010   ----------------------------------------
	.byte	PATT
	 .word	Jackroom_2_002
@ 011   ----------------------------------------
	.byte	PATT
	 .word	Jackroom_2_001
@ 012   ----------------------------------------
	.byte	PATT
	 .word	Jackroom_2_004
@ 013   ----------------------------------------
	.byte	PATT
	 .word	Jackroom_2_005
@ 014   ----------------------------------------
	.byte	PATT
	 .word	Jackroom_2_004
@ 015   ----------------------------------------
	.byte	PATT
	 .word	Jackroom_2_005
@ 016   ----------------------------------------
	.byte	PATT
	 .word	Jackroom_2_002
@ 017   ----------------------------------------
	.byte	PATT
	 .word	Jackroom_2_001
@ 018   ----------------------------------------
	.byte	PATT
	 .word	Jackroom_2_002
@ 019   ----------------------------------------
	.byte	PATT
	 .word	Jackroom_2_001
@ 020   ----------------------------------------
	.byte	PATT
	 .word	Jackroom_2_004
@ 021   ----------------------------------------
	.byte	PATT
	 .word	Jackroom_2_005
@ 022   ----------------------------------------
	.byte	PATT
	 .word	Jackroom_2_004
@ 023   ----------------------------------------
	.byte	PATT
	 .word	Jackroom_2_005
@ 024   ----------------------------------------
	.byte	PATT
	 .word	Jackroom_2_002
@ 025   ----------------------------------------
	.byte	PATT
	 .word	Jackroom_2_001
@ 026   ----------------------------------------
	.byte	PATT
	 .word	Jackroom_2_002
@ 027   ----------------------------------------
	.byte	PATT
	 .word	Jackroom_2_001
@ 028   ----------------------------------------
	.byte	PATT
	 .word	Jackroom_2_004
@ 029   ----------------------------------------
	.byte	PATT
	 .word	Jackroom_2_005
@ 030   ----------------------------------------
	.byte	PATT
	 .word	Jackroom_2_004
@ 031   ----------------------------------------
	.byte	PATT
	 .word	Jackroom_2_005
@ 032   ----------------------------------------
	.byte	PATT
	 .word	Jackroom_2_002
@ 033   ----------------------------------------
	.byte	PATT
	 .word	Jackroom_2_001
@ 034   ----------------------------------------
	.byte	PATT
	 .word	Jackroom_2_002
@ 035   ----------------------------------------
	.byte	PATT
	 .word	Jackroom_2_001
@ 036   ----------------------------------------
	.byte	PATT
	 .word	Jackroom_2_004
@ 037   ----------------------------------------
	.byte	PATT
	 .word	Jackroom_2_005
@ 038   ----------------------------------------
	.byte	PATT
	 .word	Jackroom_2_004
@ 039   ----------------------------------------
	.byte	W12
	.byte		N24   , Gs2 , v052
	.byte	W24
	.byte		N12   , Cs3 
	.byte		N12   , En3 
	.byte	W24
	.byte	GOTO
	 .word	Jackroom_2_B1
Jackroom_2_B2:
	.byte		N12   , Cs3 , v052
	.byte		N12   , En3 
	.byte	W12
@ 040   ----------------------------------------
	.byte	FINE

@**************** Track 3 (Midi-Chn.3) ****************@

Jackroom_3:
	.byte	KEYSH , Jackroom_key+0
Jackroom_3_B1:
@ 000   ----------------------------------------
	.byte		VOICE , 82
	.byte		VOL   , 84*Jackroom_mvl/mxv
	.byte		N24   , Fn3 , v080
	.byte	W24
	.byte		N12   
	.byte		N12   , Gs3 
	.byte	W24
	.byte		        Fn3 
	.byte		N12   , Gs3 
	.byte	W24
@ 001   ----------------------------------------
Jackroom_3_001:
	.byte		N24   , Cn3 , v080
	.byte	W24
	.byte		N12   , Fn3 
	.byte		N12   , Gs3 
	.byte	W24
	.byte		        Fn3 
	.byte		N12   , Gs3 
	.byte	W24
	.byte	PEND
@ 002   ----------------------------------------
Jackroom_3_002:
	.byte		N24   , Fn3 , v080
	.byte	W24
	.byte		N12   
	.byte		N12   , Gs3 
	.byte	W24
	.byte		        Fn3 
	.byte		N12   , Gs3 
	.byte	W24
	.byte	PEND
@ 003   ----------------------------------------
	.byte	PATT
	 .word	Jackroom_3_001
@ 004   ----------------------------------------
Jackroom_3_004:
	.byte		N24   , Cs3 , v080
	.byte	W24
	.byte		N12   
	.byte		N12   , En3 
	.byte	W24
	.byte		        Cs3 
	.byte		N12   , En3 
	.byte	W24
	.byte	PEND
@ 005   ----------------------------------------
Jackroom_3_005:
	.byte		N24   , Gs2 , v080
	.byte	W24
	.byte		N12   , Cs3 
	.byte		N12   , En3 
	.byte	W24
	.byte		        Cs3 
	.byte		N12   , En3 
	.byte	W24
	.byte	PEND
@ 006   ----------------------------------------
	.byte	PATT
	 .word	Jackroom_3_004
@ 007   ----------------------------------------
	.byte	PATT
	 .word	Jackroom_3_005
@ 008   ----------------------------------------
	.byte	PATT
	 .word	Jackroom_3_002
@ 009   ----------------------------------------
	.byte	PATT
	 .word	Jackroom_3_001
@ 010   ----------------------------------------
	.byte	PATT
	 .word	Jackroom_3_002
@ 011   ----------------------------------------
	.byte	PATT
	 .word	Jackroom_3_001
@ 012   ----------------------------------------
	.byte	PATT
	 .word	Jackroom_3_004
@ 013   ----------------------------------------
	.byte	PATT
	 .word	Jackroom_3_005
@ 014   ----------------------------------------
	.byte	PATT
	 .word	Jackroom_3_004
@ 015   ----------------------------------------
	.byte	PATT
	 .word	Jackroom_3_005
@ 016   ----------------------------------------
	.byte	PATT
	 .word	Jackroom_3_002
@ 017   ----------------------------------------
	.byte	PATT
	 .word	Jackroom_3_001
@ 018   ----------------------------------------
	.byte	PATT
	 .word	Jackroom_3_002
@ 019   ----------------------------------------
	.byte	PATT
	 .word	Jackroom_3_001
@ 020   ----------------------------------------
	.byte	PATT
	 .word	Jackroom_3_004
@ 021   ----------------------------------------
	.byte	PATT
	 .word	Jackroom_3_005
@ 022   ----------------------------------------
	.byte	PATT
	 .word	Jackroom_3_004
@ 023   ----------------------------------------
	.byte	PATT
	 .word	Jackroom_3_005
@ 024   ----------------------------------------
	.byte	PATT
	 .word	Jackroom_3_002
@ 025   ----------------------------------------
	.byte	PATT
	 .word	Jackroom_3_001
@ 026   ----------------------------------------
	.byte	PATT
	 .word	Jackroom_3_002
@ 027   ----------------------------------------
	.byte	PATT
	 .word	Jackroom_3_001
@ 028   ----------------------------------------
	.byte	PATT
	 .word	Jackroom_3_004
@ 029   ----------------------------------------
	.byte	PATT
	 .word	Jackroom_3_005
@ 030   ----------------------------------------
	.byte	PATT
	 .word	Jackroom_3_004
@ 031   ----------------------------------------
	.byte	PATT
	 .word	Jackroom_3_005
@ 032   ----------------------------------------
	.byte	PATT
	 .word	Jackroom_3_002
@ 033   ----------------------------------------
	.byte	PATT
	 .word	Jackroom_3_001
@ 034   ----------------------------------------
	.byte	PATT
	 .word	Jackroom_3_002
@ 035   ----------------------------------------
	.byte	PATT
	 .word	Jackroom_3_001
@ 036   ----------------------------------------
	.byte	PATT
	 .word	Jackroom_3_004
@ 037   ----------------------------------------
	.byte	PATT
	 .word	Jackroom_3_005
@ 038   ----------------------------------------
	.byte	PATT
	 .word	Jackroom_3_004
@ 039   ----------------------------------------
	.byte		N24   , Gs2 , v080
	.byte	W24
	.byte		N12   , Cs3 
	.byte		N12   , En3 
	.byte	W24
	.byte		        Cs3 
	.byte		N12   , En3 
	.byte	W12
	.byte	GOTO
	 .word	Jackroom_3_B1
Jackroom_3_B2:
	.byte	FINE

@**************** Track 4 (Midi-Chn.4) ****************@

Jackroom_4:
	.byte	KEYSH , Jackroom_key+0
Jackroom_4_B1:
@ 000   ----------------------------------------
	.byte		VOICE , 2
	.byte		VOL   , 90*Jackroom_mvl/mxv
	.byte	W72
@ 001   ----------------------------------------
	.byte	W72
@ 002   ----------------------------------------
	.byte	W72
@ 003   ----------------------------------------
	.byte	W72
@ 004   ----------------------------------------
	.byte	W72
@ 005   ----------------------------------------
	.byte	W72
@ 006   ----------------------------------------
	.byte	W72
@ 007   ----------------------------------------
	.byte	W72
@ 008   ----------------------------------------
	.byte		N72   , Fn1 , v112
	.byte	W72
@ 009   ----------------------------------------
	.byte		        Cn1 
	.byte	W72
@ 010   ----------------------------------------
	.byte		        Fn1 
	.byte	W72
@ 011   ----------------------------------------
Jackroom_4_011:
	.byte		N24   , Cn1 , v112
	.byte	W12
	.byte		N12   , Gs2 
	.byte	W12
	.byte		N24   , Fn1 
	.byte		N12   , Gn2 
	.byte	W12
	.byte		        Gs2 
	.byte	W12
	.byte		N24   , Cn1 
	.byte		N12   , Ds3 
	.byte	W12
	.byte		        Gn2 
	.byte	W12
	.byte	PEND
@ 012   ----------------------------------------
	.byte		N72   , Cs1 
	.byte		N72   , Gs2 
	.byte	W72
@ 013   ----------------------------------------
	.byte		        Gs0 
	.byte		N72   , En2 
	.byte	W72
@ 014   ----------------------------------------
	.byte		        Cs1 
	.byte		N72   , Cs2 
	.byte	W72
@ 015   ----------------------------------------
Jackroom_4_015:
	.byte		N24   , Gs0 , v112
	.byte		N24   , Cs2 
	.byte	W24
	.byte		        Cs1 
	.byte		N24   , Ds2 
	.byte	W24
	.byte		        Gs0 
	.byte		N24   , Cs2 
	.byte	W24
	.byte	PEND
@ 016   ----------------------------------------
	.byte		N72   , Fn1 
	.byte		N72   , Cn2 
	.byte	W72
@ 017   ----------------------------------------
	.byte		        Cn1 
	.byte		N72   , Fn2 
	.byte	W72
@ 018   ----------------------------------------
	.byte		        Fn1 
	.byte		N72   , Gn2 
	.byte	W72
@ 019   ----------------------------------------
Jackroom_4_019:
	.byte		N24   , Cn1 , v112
	.byte		N12   , Fn2 
	.byte	W12
	.byte		        Gn2 
	.byte	W12
	.byte		N24   , Fn1 
	.byte		N12   , Fn2 
	.byte	W12
	.byte		        Gn2 
	.byte	W12
	.byte		N24   , Cn1 
	.byte		N12   , Gs2 
	.byte	W12
	.byte		        Gn2 
	.byte	W12
	.byte	PEND
@ 020   ----------------------------------------
	.byte		N72   , Cs1 
	.byte		N72   , Ds3 
	.byte	W72
@ 021   ----------------------------------------
	.byte		        Gs0 
	.byte		N72   , Bn2 
	.byte	W72
@ 022   ----------------------------------------
	.byte		        Cs1 
	.byte		N72   , Gs2 
	.byte	W72
@ 023   ----------------------------------------
	.byte		N24   , Gs0 
	.byte	W24
	.byte		        Cs1 
	.byte	W24
	.byte		        Gs0 
	.byte	W24
@ 024   ----------------------------------------
	.byte		N72   , Fn1 
	.byte	W72
@ 025   ----------------------------------------
	.byte		        Cn1 
	.byte	W72
@ 026   ----------------------------------------
	.byte		        Fn1 
	.byte	W72
@ 027   ----------------------------------------
	.byte	PATT
	 .word	Jackroom_4_011
@ 028   ----------------------------------------
	.byte		N72   , Cs1 , v112
	.byte		N72   , Gs2 
	.byte	W72
@ 029   ----------------------------------------
	.byte		        Gs0 
	.byte		N72   , En2 
	.byte	W72
@ 030   ----------------------------------------
	.byte		        Cs1 
	.byte		N72   , Cs2 
	.byte	W72
@ 031   ----------------------------------------
	.byte	PATT
	 .word	Jackroom_4_015
@ 032   ----------------------------------------
	.byte		N72   , Fn1 , v112
	.byte		N72   , Cn2 
	.byte	W72
@ 033   ----------------------------------------
	.byte		        Cn1 
	.byte		N72   , Fn2 
	.byte	W72
@ 034   ----------------------------------------
	.byte		        Fn1 
	.byte		N72   , Gn2 
	.byte	W72
@ 035   ----------------------------------------
	.byte	PATT
	 .word	Jackroom_4_019
@ 036   ----------------------------------------
	.byte		N72   , Cs1 , v112
	.byte		N72   , Ds3 
	.byte	W72
@ 037   ----------------------------------------
	.byte		        Gs0 
	.byte		N72   , Bn2 
	.byte	W72
@ 038   ----------------------------------------
	.byte		        Cs1 
	.byte		N72   , Gs2 
	.byte	W72
@ 039   ----------------------------------------
	.byte		N24   , Gs0 
	.byte	W24
	.byte		        Cs1 
	.byte	W24
	.byte		        Gs0 
	.byte	W12
	.byte	GOTO
	 .word	Jackroom_4_B1
Jackroom_4_B2:
	.byte	W12
@ 040   ----------------------------------------
	.byte	FINE

@**************** Track 5 (Midi-Chn.5) ****************@

Jackroom_5:
	.byte	KEYSH , Jackroom_key+0
Jackroom_5_B1:
@ 000   ----------------------------------------
	.byte		VOICE , 2
	.byte		VOL   , 98*Jackroom_mvl/mxv
	.byte	W72
@ 001   ----------------------------------------
	.byte	W72
@ 002   ----------------------------------------
	.byte	W72
@ 003   ----------------------------------------
	.byte	W72
@ 004   ----------------------------------------
	.byte	W72
@ 005   ----------------------------------------
	.byte	W72
@ 006   ----------------------------------------
	.byte	W72
@ 007   ----------------------------------------
	.byte	W72
@ 008   ----------------------------------------
	.byte		N72   , Fn1 , v100
	.byte	W72
@ 009   ----------------------------------------
	.byte		        Cn1 
	.byte	W72
@ 010   ----------------------------------------
	.byte		        Fn1 
	.byte	W72
@ 011   ----------------------------------------
Jackroom_5_011:
	.byte		N24   , Cn1 , v100
	.byte	W12
	.byte		N12   , Gs2 
	.byte	W12
	.byte		N24   , Fn1 
	.byte		N12   , Gn2 
	.byte	W12
	.byte		        Gs2 
	.byte	W12
	.byte		N24   , Cn1 
	.byte		N12   , Ds3 
	.byte	W12
	.byte		        Gn2 
	.byte	W12
	.byte	PEND
@ 012   ----------------------------------------
	.byte		N72   , Cs1 
	.byte		N72   , Gs2 
	.byte	W72
@ 013   ----------------------------------------
	.byte		        Gs0 
	.byte		N72   , En2 
	.byte	W72
@ 014   ----------------------------------------
	.byte		        Cs1 
	.byte		N72   , Cs2 
	.byte	W72
@ 015   ----------------------------------------
Jackroom_5_015:
	.byte		N24   , Gs0 , v100
	.byte		N24   , Cs2 
	.byte	W24
	.byte		        Cs1 
	.byte		N24   , Ds2 
	.byte	W24
	.byte		        Gs0 
	.byte		N24   , Cs2 
	.byte	W24
	.byte	PEND
@ 016   ----------------------------------------
	.byte		N72   , Fn1 
	.byte		N72   , Cn2 
	.byte	W72
@ 017   ----------------------------------------
	.byte		        Cn1 
	.byte		N72   , Fn2 
	.byte	W72
@ 018   ----------------------------------------
	.byte		        Fn1 
	.byte		N72   , Gn2 
	.byte	W72
@ 019   ----------------------------------------
Jackroom_5_019:
	.byte		N24   , Cn1 , v100
	.byte		N12   , Fn2 
	.byte	W12
	.byte		        Gn2 
	.byte	W12
	.byte		N24   , Fn1 
	.byte		N12   , Fn2 
	.byte	W12
	.byte		        Gn2 
	.byte	W12
	.byte		N24   , Cn1 
	.byte		N12   , Gs2 
	.byte	W12
	.byte		        Gn2 
	.byte	W12
	.byte	PEND
@ 020   ----------------------------------------
	.byte		N72   , Cs1 
	.byte		N72   , Ds3 
	.byte	W72
@ 021   ----------------------------------------
	.byte		        Gs0 
	.byte		N72   , Bn2 
	.byte	W72
@ 022   ----------------------------------------
	.byte		        Cs1 
	.byte		N72   , Gs2 
	.byte	W72
@ 023   ----------------------------------------
	.byte		N24   , Gs0 
	.byte	W24
	.byte		        Cs1 
	.byte	W24
	.byte		        Gs0 
	.byte	W24
@ 024   ----------------------------------------
	.byte		N72   , Fn1 
	.byte	W72
@ 025   ----------------------------------------
	.byte		        Cn1 
	.byte	W72
@ 026   ----------------------------------------
	.byte		        Fn1 
	.byte	W72
@ 027   ----------------------------------------
	.byte	PATT
	 .word	Jackroom_5_011
@ 028   ----------------------------------------
	.byte		N72   , Cs1 , v100
	.byte		N72   , Gs2 
	.byte	W72
@ 029   ----------------------------------------
	.byte		        Gs0 
	.byte		N72   , En2 
	.byte	W72
@ 030   ----------------------------------------
	.byte		        Cs1 
	.byte		N72   , Cs2 
	.byte	W72
@ 031   ----------------------------------------
	.byte	PATT
	 .word	Jackroom_5_015
@ 032   ----------------------------------------
	.byte		N72   , Fn1 , v100
	.byte		N72   , Cn2 
	.byte	W72
@ 033   ----------------------------------------
	.byte		        Cn1 
	.byte		N72   , Fn2 
	.byte	W72
@ 034   ----------------------------------------
	.byte		        Fn1 
	.byte		N72   , Gn2 
	.byte	W72
@ 035   ----------------------------------------
	.byte	PATT
	 .word	Jackroom_5_019
@ 036   ----------------------------------------
	.byte		N72   , Cs1 , v100
	.byte		N72   , Ds3 
	.byte	W72
@ 037   ----------------------------------------
	.byte		        Gs0 
	.byte		N72   , Bn2 
	.byte	W72
@ 038   ----------------------------------------
	.byte		        Cs1 
	.byte		N72   , Gs2 
	.byte	W72
@ 039   ----------------------------------------
	.byte		N24   , Gs0 
	.byte	W24
	.byte		        Cs1 
	.byte	W24
	.byte		        Gs0 
	.byte	W12
	.byte	GOTO
	 .word	Jackroom_5_B1
Jackroom_5_B2:
	.byte	W12
@ 040   ----------------------------------------
	.byte	FINE

@**************** Track 6 (Midi-Chn.7) ****************@

Jackroom_6:
	.byte	KEYSH , Jackroom_key+0
Jackroom_6_B1:
@ 000   ----------------------------------------
	.byte		VOICE , 46
	.byte		VOL   , 106*Jackroom_mvl/mxv
	.byte	W72
@ 001   ----------------------------------------
	.byte	W72
@ 002   ----------------------------------------
	.byte	W72
@ 003   ----------------------------------------
	.byte	W72
@ 004   ----------------------------------------
	.byte	W72
@ 005   ----------------------------------------
	.byte	W72
@ 006   ----------------------------------------
	.byte	W72
@ 007   ----------------------------------------
	.byte	W72
@ 008   ----------------------------------------
Jackroom_6_008:
	.byte		TIE   , Cn4 , v072
	.byte		TIE   , Cn5 
	.byte	W72
	.byte	PEND
@ 009   ----------------------------------------
	.byte	W72
@ 010   ----------------------------------------
	.byte	W72
@ 011   ----------------------------------------
	.byte	W72
	.byte		EOT   , Cn4 
	.byte		        Cn5 
@ 012   ----------------------------------------
Jackroom_6_012:
	.byte		TIE   , Bn3 , v072
	.byte		TIE   , Bn4 
	.byte	W72
	.byte	PEND
@ 013   ----------------------------------------
	.byte	W72
@ 014   ----------------------------------------
	.byte	W72
@ 015   ----------------------------------------
	.byte	W72
	.byte		EOT   , Bn3 
	.byte		        Bn4 
@ 016   ----------------------------------------
	.byte	PATT
	 .word	Jackroom_6_008
@ 017   ----------------------------------------
	.byte	W72
@ 018   ----------------------------------------
	.byte	W72
@ 019   ----------------------------------------
	.byte	W72
	.byte		EOT   , Cn4 
	.byte		        Cn5 
@ 020   ----------------------------------------
	.byte	PATT
	 .word	Jackroom_6_012
@ 021   ----------------------------------------
	.byte	W72
@ 022   ----------------------------------------
	.byte	W72
@ 023   ----------------------------------------
	.byte	W72
	.byte		EOT   , Bn3 
	.byte		        Bn4 
@ 024   ----------------------------------------
	.byte	PATT
	 .word	Jackroom_6_008
@ 025   ----------------------------------------
	.byte	W72
@ 026   ----------------------------------------
	.byte	W72
@ 027   ----------------------------------------
	.byte	W72
	.byte		EOT   , Cn4 
	.byte		        Cn5 
@ 028   ----------------------------------------
	.byte	PATT
	 .word	Jackroom_6_012
@ 029   ----------------------------------------
	.byte	W72
@ 030   ----------------------------------------
	.byte	W72
@ 031   ----------------------------------------
	.byte	W72
	.byte		EOT   , Bn3 
	.byte		        Bn4 
@ 032   ----------------------------------------
	.byte	PATT
	 .word	Jackroom_6_008
@ 033   ----------------------------------------
	.byte	W72
@ 034   ----------------------------------------
	.byte	W72
@ 035   ----------------------------------------
	.byte	W72
	.byte		EOT   , Cn4 
	.byte		        Cn5 
@ 036   ----------------------------------------
	.byte	PATT
	 .word	Jackroom_6_012
@ 037   ----------------------------------------
	.byte	W72
@ 038   ----------------------------------------
	.byte	W72
@ 039   ----------------------------------------
	.byte	W60
	.byte	GOTO
	 .word	Jackroom_6_B1
Jackroom_6_B2:
	.byte	W12
	.byte		EOT   , Bn3 
	.byte		        Bn4 
@ 040   ----------------------------------------
	.byte	FINE

@******************************************************@
	.align	2

Jackroom:
	.byte	6	@ NumTrks
	.byte	0	@ NumBlks
	.byte	Jackroom_pri	@ Priority
	.byte	Jackroom_rev	@ Reverb.

	.word	Jackroom_grp

	.word	Jackroom_1
	.word	Jackroom_2
	.word	Jackroom_3
	.word	Jackroom_4
	.word	Jackroom_5
	.word	Jackroom_6

	.end
