	.include "MPlayDef.s"

	.equ	Jenova_grp, voicegroup000
	.equ	Jenova_pri, 0
	.equ	Jenova_rev, 0
	.equ	Jenova_mvl, 87
	.equ	Jenova_key, 0
	.equ	Jenova_tbs, 1
	.equ	Jenova_exg, 0
	.equ	Jenova_cmp, 1

	.section .rodata
	.global	Jenova
	.align	2

@**************** Track 1 (Midi-Chn.1) ****************@

Jenova_1:
	.byte	KEYSH , Jenova_key+0
@ 000   ----------------------------------------
	.byte	TEMPO , 180*Jenova_tbs/2
	.byte		VOICE , 80
	.byte		VOL   , 73*Jenova_mvl/mxv
	.byte		PAN   , c_v+0
	.byte		N11   , As4 , v092
	.byte	W12
	.byte		        An4 
	.byte	W12
	.byte		        Fn4 
	.byte	W12
	.byte		        Dn4 
	.byte	W12
	.byte		        As3 
	.byte	W12
	.byte		        An3 
	.byte	W12
	.byte		        Fn3 
	.byte	W12
	.byte		        Dn3 
	.byte	W12
@ 001   ----------------------------------------
Jenova_1_001:
	.byte		N11   , As4 , v092
	.byte	W12
	.byte		        An4 
	.byte	W12
	.byte		        Fn4 
	.byte	W12
	.byte		        Dn4 
	.byte	W12
	.byte		        As3 
	.byte	W12
	.byte		        An3 
	.byte	W12
	.byte		        Fn3 
	.byte	W12
	.byte		        Dn3 
	.byte	W12
	.byte	PEND
@ 002   ----------------------------------------
	.byte	PATT
	 .word	Jenova_1_001
@ 003   ----------------------------------------
	.byte	PATT
	 .word	Jenova_1_001
@ 004   ----------------------------------------
	.byte	PATT
	 .word	Jenova_1_001
@ 005   ----------------------------------------
	.byte	PATT
	 .word	Jenova_1_001
@ 006   ----------------------------------------
	.byte	PATT
	 .word	Jenova_1_001
@ 007   ----------------------------------------
	.byte	PATT
	 .word	Jenova_1_001
@ 008   ----------------------------------------
	.byte	PATT
	 .word	Jenova_1_001
@ 009   ----------------------------------------
	.byte	PATT
	 .word	Jenova_1_001
@ 010   ----------------------------------------
	.byte	PATT
	 .word	Jenova_1_001
@ 011   ----------------------------------------
	.byte	PATT
	 .word	Jenova_1_001
Jenova_1_B1:
@ 012   ----------------------------------------
	.byte	PATT
	 .word	Jenova_1_001
@ 013   ----------------------------------------
	.byte	PATT
	 .word	Jenova_1_001
@ 014   ----------------------------------------
	.byte	PATT
	 .word	Jenova_1_001
@ 015   ----------------------------------------
	.byte	PATT
	 .word	Jenova_1_001
@ 016   ----------------------------------------
	.byte	PATT
	 .word	Jenova_1_001
@ 017   ----------------------------------------
	.byte	PATT
	 .word	Jenova_1_001
@ 018   ----------------------------------------
	.byte	PATT
	 .word	Jenova_1_001
@ 019   ----------------------------------------
	.byte	PATT
	 .word	Jenova_1_001
@ 020   ----------------------------------------
Jenova_1_020:
	.byte		N11   , Gs4 , v092
	.byte	W12
	.byte		        Fn4 
	.byte	W12
	.byte		        Cs4 
	.byte	W12
	.byte		        Cn4 
	.byte	W12
	.byte		        Gs3 
	.byte	W12
	.byte		        Fn3 
	.byte	W12
	.byte		        Cs3 
	.byte	W12
	.byte		        Cn3 
	.byte	W12
	.byte	PEND
@ 021   ----------------------------------------
	.byte	PATT
	 .word	Jenova_1_020
@ 022   ----------------------------------------
	.byte	PATT
	 .word	Jenova_1_020
@ 023   ----------------------------------------
	.byte	PATT
	 .word	Jenova_1_020
@ 024   ----------------------------------------
Jenova_1_024:
	.byte		N11   , Gn4 , v092
	.byte	W12
	.byte		        Ds4 
	.byte	W12
	.byte		        Dn4 
	.byte	W12
	.byte		        As3 
	.byte	W12
	.byte		        Gn3 
	.byte	W12
	.byte		        Ds3 
	.byte	W12
	.byte		        Gs2 
	.byte	W12
	.byte		        Gn2 
	.byte	W12
	.byte	PEND
@ 025   ----------------------------------------
	.byte	PATT
	 .word	Jenova_1_024
@ 026   ----------------------------------------
	.byte	PATT
	 .word	Jenova_1_024
@ 027   ----------------------------------------
	.byte	PATT
	 .word	Jenova_1_024
@ 028   ----------------------------------------
	.byte	W96
@ 029   ----------------------------------------
	.byte	W96
@ 030   ----------------------------------------
	.byte	W96
@ 031   ----------------------------------------
	.byte	W96
@ 032   ----------------------------------------
	.byte	W96
@ 033   ----------------------------------------
	.byte	W96
@ 034   ----------------------------------------
	.byte	W96
@ 035   ----------------------------------------
	.byte	W96
@ 036   ----------------------------------------
	.byte	W96
@ 037   ----------------------------------------
	.byte	W96
@ 038   ----------------------------------------
	.byte	W96
@ 039   ----------------------------------------
	.byte	W96
@ 040   ----------------------------------------
	.byte	W96
@ 041   ----------------------------------------
	.byte	W96
@ 042   ----------------------------------------
	.byte	W96
@ 043   ----------------------------------------
	.byte	W96
@ 044   ----------------------------------------
	.byte	W96
@ 045   ----------------------------------------
	.byte	W96
@ 046   ----------------------------------------
	.byte	W96
@ 047   ----------------------------------------
	.byte	W96
@ 048   ----------------------------------------
	.byte	W96
@ 049   ----------------------------------------
	.byte	W96
@ 050   ----------------------------------------
	.byte	W96
@ 051   ----------------------------------------
	.byte	W96
@ 052   ----------------------------------------
Jenova_1_052:
	.byte		N11   , Gs4 , v092
	.byte	W12
	.byte		        Gn4 
	.byte	W12
	.byte		        Ds4 
	.byte	W12
	.byte		        Cn4 
	.byte	W12
	.byte		        Gs3 
	.byte	W12
	.byte		        Gn3 
	.byte	W12
	.byte		        Ds3 
	.byte	W12
	.byte		        Cn3 
	.byte	W12
	.byte	PEND
@ 053   ----------------------------------------
	.byte	PATT
	 .word	Jenova_1_052
@ 054   ----------------------------------------
	.byte	PATT
	 .word	Jenova_1_052
@ 055   ----------------------------------------
	.byte	PATT
	 .word	Jenova_1_052
@ 056   ----------------------------------------
	.byte	PATT
	 .word	Jenova_1_001
@ 057   ----------------------------------------
	.byte	PATT
	 .word	Jenova_1_001
@ 058   ----------------------------------------
	.byte	PATT
	 .word	Jenova_1_001
@ 059   ----------------------------------------
	.byte	PATT
	 .word	Jenova_1_001
@ 060   ----------------------------------------
	.byte	PATT
	 .word	Jenova_1_001
@ 061   ----------------------------------------
	.byte	PATT
	 .word	Jenova_1_001
@ 062   ----------------------------------------
	.byte	PATT
	 .word	Jenova_1_001
@ 063   ----------------------------------------
	.byte	PATT
	 .word	Jenova_1_001
@ 064   ----------------------------------------
	.byte	PATT
	 .word	Jenova_1_020
@ 065   ----------------------------------------
	.byte	PATT
	 .word	Jenova_1_020
@ 066   ----------------------------------------
	.byte	PATT
	 .word	Jenova_1_020
@ 067   ----------------------------------------
	.byte	PATT
	 .word	Jenova_1_020
@ 068   ----------------------------------------
	.byte	PATT
	 .word	Jenova_1_024
@ 069   ----------------------------------------
	.byte	PATT
	 .word	Jenova_1_024
@ 070   ----------------------------------------
	.byte	PATT
	 .word	Jenova_1_024
@ 071   ----------------------------------------
	.byte	PATT
	 .word	Jenova_1_024
@ 072   ----------------------------------------
	.byte	W96
@ 073   ----------------------------------------
	.byte	W96
@ 074   ----------------------------------------
	.byte	W96
@ 075   ----------------------------------------
	.byte	W96
@ 076   ----------------------------------------
	.byte	W96
@ 077   ----------------------------------------
	.byte	W96
@ 078   ----------------------------------------
	.byte	W96
@ 079   ----------------------------------------
	.byte	W96
@ 080   ----------------------------------------
	.byte	W96
@ 081   ----------------------------------------
	.byte	W96
@ 082   ----------------------------------------
	.byte	W96
@ 083   ----------------------------------------
	.byte	W96
@ 084   ----------------------------------------
	.byte	W96
@ 085   ----------------------------------------
	.byte	W96
@ 086   ----------------------------------------
	.byte	W96
@ 087   ----------------------------------------
	.byte	W96
@ 088   ----------------------------------------
	.byte	W96
@ 089   ----------------------------------------
	.byte	W96
@ 090   ----------------------------------------
	.byte	W96
@ 091   ----------------------------------------
	.byte	W96
@ 092   ----------------------------------------
	.byte	W96
@ 093   ----------------------------------------
	.byte	W96
@ 094   ----------------------------------------
	.byte	W96
@ 095   ----------------------------------------
	.byte	W96
@ 096   ----------------------------------------
	.byte	PATT
	 .word	Jenova_1_052
@ 097   ----------------------------------------
	.byte	PATT
	 .word	Jenova_1_052
@ 098   ----------------------------------------
	.byte	PATT
	 .word	Jenova_1_052
@ 099   ----------------------------------------
	.byte		N11   , Gs4 , v092
	.byte	W12
	.byte		        Gn4 
	.byte	W12
	.byte		        Ds4 
	.byte	W12
	.byte		        Cn4 
	.byte	W12
	.byte		        Gs3 
	.byte	W12
	.byte		        Gn3 
	.byte	W12
	.byte		        Ds3 
	.byte	W12
	.byte		        Cn3 
	.byte	W11
	.byte	GOTO
	 .word	Jenova_1_B1
Jenova_1_B2:
	.byte	FINE

@**************** Track 2 (Midi-Chn.2) ****************@

Jenova_2:
	.byte	KEYSH , Jenova_key+0
@ 000   ----------------------------------------
	.byte		VOICE , 48
	.byte		VOL   , 98*Jenova_mvl/mxv
	.byte		PAN   , c_v+0
	.byte	W96
@ 001   ----------------------------------------
	.byte	W96
@ 002   ----------------------------------------
	.byte	W96
@ 003   ----------------------------------------
	.byte	W96
@ 004   ----------------------------------------
	.byte		TIE   , Gs3 , v108
	.byte	W96
@ 005   ----------------------------------------
	.byte	W90
	.byte		EOT   
	.byte	W06
@ 006   ----------------------------------------
	.byte	W96
@ 007   ----------------------------------------
	.byte	W96
@ 008   ----------------------------------------
	.byte		N96   
	.byte	W96
@ 009   ----------------------------------------
	.byte		N90   , Dn4 
	.byte	W96
@ 010   ----------------------------------------
	.byte	W96
@ 011   ----------------------------------------
	.byte	W96
Jenova_2_B1:
@ 012   ----------------------------------------
	.byte	W96
@ 013   ----------------------------------------
	.byte	W96
@ 014   ----------------------------------------
	.byte	W96
@ 015   ----------------------------------------
	.byte	W96
@ 016   ----------------------------------------
	.byte	W96
@ 017   ----------------------------------------
	.byte	W96
@ 018   ----------------------------------------
	.byte	W96
@ 019   ----------------------------------------
	.byte	W96
@ 020   ----------------------------------------
	.byte	W96
@ 021   ----------------------------------------
	.byte	W96
@ 022   ----------------------------------------
	.byte	W96
@ 023   ----------------------------------------
	.byte	W96
@ 024   ----------------------------------------
	.byte	W96
@ 025   ----------------------------------------
	.byte	W96
@ 026   ----------------------------------------
	.byte	W96
@ 027   ----------------------------------------
	.byte	W96
@ 028   ----------------------------------------
	.byte	W96
@ 029   ----------------------------------------
	.byte	W96
@ 030   ----------------------------------------
	.byte	W96
@ 031   ----------------------------------------
	.byte	W96
@ 032   ----------------------------------------
	.byte	W96
@ 033   ----------------------------------------
	.byte	W96
@ 034   ----------------------------------------
	.byte	W96
@ 035   ----------------------------------------
	.byte	W96
@ 036   ----------------------------------------
	.byte	W96
@ 037   ----------------------------------------
	.byte	W96
@ 038   ----------------------------------------
	.byte	W96
@ 039   ----------------------------------------
	.byte	W96
@ 040   ----------------------------------------
	.byte	W96
@ 041   ----------------------------------------
	.byte	W96
@ 042   ----------------------------------------
	.byte	W96
@ 043   ----------------------------------------
	.byte	W96
@ 044   ----------------------------------------
	.byte	W96
@ 045   ----------------------------------------
	.byte	W96
@ 046   ----------------------------------------
	.byte	W96
@ 047   ----------------------------------------
	.byte	W96
@ 048   ----------------------------------------
	.byte	W96
@ 049   ----------------------------------------
	.byte	W96
@ 050   ----------------------------------------
	.byte	W96
@ 051   ----------------------------------------
	.byte	W96
@ 052   ----------------------------------------
	.byte	W96
@ 053   ----------------------------------------
	.byte	W96
@ 054   ----------------------------------------
	.byte	W96
@ 055   ----------------------------------------
	.byte	W96
@ 056   ----------------------------------------
	.byte	W96
@ 057   ----------------------------------------
	.byte	W96
@ 058   ----------------------------------------
	.byte	W96
@ 059   ----------------------------------------
	.byte	W96
@ 060   ----------------------------------------
	.byte	W96
@ 061   ----------------------------------------
	.byte	W96
@ 062   ----------------------------------------
	.byte	W96
@ 063   ----------------------------------------
	.byte	W96
@ 064   ----------------------------------------
	.byte	W96
@ 065   ----------------------------------------
	.byte	W96
@ 066   ----------------------------------------
	.byte	W96
@ 067   ----------------------------------------
	.byte	W96
@ 068   ----------------------------------------
	.byte	W96
@ 069   ----------------------------------------
	.byte	W96
@ 070   ----------------------------------------
	.byte	W96
@ 071   ----------------------------------------
	.byte	W96
@ 072   ----------------------------------------
	.byte	W96
@ 073   ----------------------------------------
	.byte	W96
@ 074   ----------------------------------------
	.byte	W96
@ 075   ----------------------------------------
	.byte	W96
@ 076   ----------------------------------------
	.byte	W96
@ 077   ----------------------------------------
	.byte	W96
@ 078   ----------------------------------------
	.byte	W96
@ 079   ----------------------------------------
	.byte	W96
@ 080   ----------------------------------------
	.byte	W96
@ 081   ----------------------------------------
	.byte	W96
@ 082   ----------------------------------------
	.byte	W96
@ 083   ----------------------------------------
	.byte	W96
@ 084   ----------------------------------------
	.byte	W96
@ 085   ----------------------------------------
	.byte	W96
@ 086   ----------------------------------------
	.byte	W96
@ 087   ----------------------------------------
	.byte	W96
@ 088   ----------------------------------------
	.byte	W96
@ 089   ----------------------------------------
	.byte	W96
@ 090   ----------------------------------------
	.byte	W96
@ 091   ----------------------------------------
	.byte	W96
@ 092   ----------------------------------------
	.byte	W96
@ 093   ----------------------------------------
	.byte	W96
@ 094   ----------------------------------------
	.byte	W96
@ 095   ----------------------------------------
	.byte	W96
@ 096   ----------------------------------------
	.byte	W96
@ 097   ----------------------------------------
	.byte	W96
@ 098   ----------------------------------------
	.byte	W96
@ 099   ----------------------------------------
	.byte	W92
	.byte	W03
	.byte	GOTO
	 .word	Jenova_2_B1
Jenova_2_B2:
	.byte	FINE

@**************** Track 3 (Midi-Chn.3) ****************@

Jenova_3:
	.byte	KEYSH , Jenova_key+0
@ 000   ----------------------------------------
	.byte		VOICE , 81
	.byte		VOL   , 101*Jenova_mvl/mxv
	.byte		PAN   , c_v+0
	.byte	W96
@ 001   ----------------------------------------
	.byte	W96
@ 002   ----------------------------------------
	.byte	W96
@ 003   ----------------------------------------
	.byte	W96
@ 004   ----------------------------------------
Jenova_3_004:
	.byte		N11   , Dn1 , v092
	.byte	W12
	.byte		        Fn1 
	.byte	W12
	.byte		        Dn1 
	.byte	W12
	.byte		        Fn1 
	.byte	W12
	.byte		        As1 
	.byte	W12
	.byte		        An1 
	.byte	W12
	.byte		        Fn1 
	.byte	W12
	.byte		        Dn1 
	.byte	W12
	.byte	PEND
@ 005   ----------------------------------------
Jenova_3_005:
	.byte		N11   , Fn1 , v092
	.byte	W12
	.byte		        An1 
	.byte	W12
	.byte		        As1 
	.byte	W12
	.byte		        An1 
	.byte	W12
	.byte		        Fn1 
	.byte	W12
	.byte		        Dn1 
	.byte	W12
	.byte		        As0 
	.byte	W12
	.byte		        An0 
	.byte	W12
	.byte	PEND
@ 006   ----------------------------------------
	.byte	PATT
	 .word	Jenova_3_004
@ 007   ----------------------------------------
	.byte	PATT
	 .word	Jenova_3_005
@ 008   ----------------------------------------
	.byte	PATT
	 .word	Jenova_3_004
@ 009   ----------------------------------------
	.byte	PATT
	 .word	Jenova_3_005
@ 010   ----------------------------------------
	.byte	PATT
	 .word	Jenova_3_004
@ 011   ----------------------------------------
	.byte	PATT
	 .word	Jenova_3_005
Jenova_3_B1:
@ 012   ----------------------------------------
	.byte	PATT
	 .word	Jenova_3_004
@ 013   ----------------------------------------
	.byte	PATT
	 .word	Jenova_3_005
@ 014   ----------------------------------------
	.byte	PATT
	 .word	Jenova_3_004
@ 015   ----------------------------------------
	.byte	PATT
	 .word	Jenova_3_005
@ 016   ----------------------------------------
	.byte	PATT
	 .word	Jenova_3_004
@ 017   ----------------------------------------
	.byte	PATT
	 .word	Jenova_3_005
@ 018   ----------------------------------------
	.byte	PATT
	 .word	Jenova_3_004
@ 019   ----------------------------------------
	.byte	PATT
	 .word	Jenova_3_005
@ 020   ----------------------------------------
Jenova_3_020:
	.byte		N11   , Fn1 , v092
	.byte	W12
	.byte		        Gs1 
	.byte	W12
	.byte		        Fn1 
	.byte	W12
	.byte		        Gs1 
	.byte	W12
	.byte		        Cs2 
	.byte	W12
	.byte		        Cn2 
	.byte	W12
	.byte		        Gs1 
	.byte	W12
	.byte		        Fn1 
	.byte	W12
	.byte	PEND
@ 021   ----------------------------------------
Jenova_3_021:
	.byte		N11   , Gs1 , v092
	.byte	W12
	.byte		        Cn2 
	.byte	W12
	.byte		        Cs2 
	.byte	W12
	.byte		        Cn2 
	.byte	W12
	.byte		        Gs1 
	.byte	W12
	.byte		        Fn1 
	.byte	W12
	.byte		        Cs1 
	.byte	W12
	.byte		        Cn1 
	.byte	W12
	.byte	PEND
@ 022   ----------------------------------------
	.byte	PATT
	 .word	Jenova_3_020
@ 023   ----------------------------------------
	.byte	PATT
	 .word	Jenova_3_021
@ 024   ----------------------------------------
Jenova_3_024:
	.byte		N11   , Cn1 , v092
	.byte	W12
	.byte		        Ds1 
	.byte	W12
	.byte		        Cn1 
	.byte	W12
	.byte		        Ds1 
	.byte	W12
	.byte		        Gs1 
	.byte	W12
	.byte		        Gn1 
	.byte	W12
	.byte		        Ds1 
	.byte	W12
	.byte		        Cn1 
	.byte	W12
	.byte	PEND
@ 025   ----------------------------------------
Jenova_3_025:
	.byte		N11   , Ds1 , v092
	.byte	W12
	.byte		        Gn1 
	.byte	W12
	.byte		        Gs1 
	.byte	W12
	.byte		        Gn1 
	.byte	W12
	.byte		        Ds1 
	.byte	W12
	.byte		        Cn1 
	.byte	W12
	.byte		        Gs0 
	.byte	W12
	.byte		        Gn0 
	.byte	W12
	.byte	PEND
@ 026   ----------------------------------------
	.byte	PATT
	 .word	Jenova_3_024
@ 027   ----------------------------------------
	.byte	PATT
	 .word	Jenova_3_025
@ 028   ----------------------------------------
Jenova_3_028:
	.byte		N11   , Gs0 , v092
	.byte	W12
	.byte		        Bn0 
	.byte	W12
	.byte		        Gs0 
	.byte	W12
	.byte		        Bn0 
	.byte	W12
	.byte		        En1 
	.byte	W12
	.byte		        Ds1 
	.byte	W12
	.byte		        Bn0 
	.byte	W12
	.byte		        Gs0 
	.byte	W12
	.byte	PEND
@ 029   ----------------------------------------
Jenova_3_029:
	.byte		N11   , Bn0 , v092
	.byte	W12
	.byte		        Ds1 
	.byte	W12
	.byte		        En1 
	.byte	W12
	.byte		        Ds1 
	.byte	W12
	.byte		        Bn0 
	.byte	W12
	.byte		        Gs0 
	.byte	W12
	.byte		        Ds0 
	.byte	W12
	.byte		N11   
	.byte	W12
	.byte	PEND
@ 030   ----------------------------------------
	.byte	PATT
	 .word	Jenova_3_028
@ 031   ----------------------------------------
	.byte	PATT
	 .word	Jenova_3_029
@ 032   ----------------------------------------
Jenova_3_032:
	.byte		N11   , En1 , v092
	.byte	W12
	.byte		        Gn1 
	.byte	W12
	.byte		        En1 
	.byte	W12
	.byte		        Gn1 
	.byte	W12
	.byte		        Cn2 
	.byte	W12
	.byte		        Bn1 
	.byte	W12
	.byte		        Gn1 
	.byte	W12
	.byte		        En1 
	.byte	W12
	.byte	PEND
@ 033   ----------------------------------------
Jenova_3_033:
	.byte		N11   , Gn1 , v092
	.byte	W12
	.byte		        Bn1 
	.byte	W12
	.byte		        Cn2 
	.byte	W12
	.byte		        Bn1 
	.byte	W12
	.byte		        Gn1 
	.byte	W12
	.byte		        En1 
	.byte	W12
	.byte		        Cn1 
	.byte	W12
	.byte		        Bn0 
	.byte	W12
	.byte	PEND
@ 034   ----------------------------------------
	.byte	PATT
	 .word	Jenova_3_032
@ 035   ----------------------------------------
	.byte	PATT
	 .word	Jenova_3_033
@ 036   ----------------------------------------
Jenova_3_036:
	.byte		N11   , Gn1 , v092
	.byte	W12
	.byte		        As1 
	.byte	W12
	.byte		        Gn1 
	.byte	W12
	.byte		        As1 
	.byte	W12
	.byte		        Ds2 
	.byte	W12
	.byte		        Dn2 
	.byte	W12
	.byte		        As1 
	.byte	W12
	.byte		        Gn1 
	.byte	W12
	.byte	PEND
@ 037   ----------------------------------------
Jenova_3_037:
	.byte		N11   , As1 , v092
	.byte	W12
	.byte		        Dn2 
	.byte	W12
	.byte		        Ds2 
	.byte	W12
	.byte		        Dn2 
	.byte	W12
	.byte		        As1 
	.byte	W12
	.byte		        Gn1 
	.byte	W12
	.byte		        Ds1 
	.byte	W12
	.byte		        Dn1 
	.byte	W12
	.byte	PEND
@ 038   ----------------------------------------
	.byte	PATT
	 .word	Jenova_3_036
@ 039   ----------------------------------------
	.byte	PATT
	 .word	Jenova_3_037
@ 040   ----------------------------------------
	.byte	PATT
	 .word	Jenova_3_004
@ 041   ----------------------------------------
	.byte	PATT
	 .word	Jenova_3_005
@ 042   ----------------------------------------
	.byte	PATT
	 .word	Jenova_3_004
@ 043   ----------------------------------------
	.byte	PATT
	 .word	Jenova_3_005
@ 044   ----------------------------------------
Jenova_3_044:
	.byte	W24
	.byte		N11   , Fn1 , v127
	.byte	W36
	.byte		N11   
	.byte	W36
	.byte	PEND
@ 045   ----------------------------------------
Jenova_3_045:
	.byte		N11   , Fn1 , v127
	.byte	W36
	.byte		N11   
	.byte	W36
	.byte		N11   
	.byte	W24
	.byte	PEND
@ 046   ----------------------------------------
	.byte	PATT
	 .word	Jenova_3_044
@ 047   ----------------------------------------
	.byte	PATT
	 .word	Jenova_3_045
@ 048   ----------------------------------------
	.byte	PATT
	 .word	Jenova_3_044
@ 049   ----------------------------------------
	.byte	PATT
	 .word	Jenova_3_045
@ 050   ----------------------------------------
	.byte	PATT
	 .word	Jenova_3_044
@ 051   ----------------------------------------
	.byte	PATT
	 .word	Jenova_3_045
@ 052   ----------------------------------------
	.byte	PATT
	 .word	Jenova_3_024
@ 053   ----------------------------------------
	.byte	PATT
	 .word	Jenova_3_025
@ 054   ----------------------------------------
	.byte	PATT
	 .word	Jenova_3_024
@ 055   ----------------------------------------
	.byte	PATT
	 .word	Jenova_3_025
@ 056   ----------------------------------------
	.byte	PATT
	 .word	Jenova_3_004
@ 057   ----------------------------------------
	.byte	PATT
	 .word	Jenova_3_005
@ 058   ----------------------------------------
	.byte	PATT
	 .word	Jenova_3_004
@ 059   ----------------------------------------
	.byte	PATT
	 .word	Jenova_3_005
@ 060   ----------------------------------------
	.byte	PATT
	 .word	Jenova_3_004
@ 061   ----------------------------------------
	.byte	PATT
	 .word	Jenova_3_005
@ 062   ----------------------------------------
	.byte	PATT
	 .word	Jenova_3_004
@ 063   ----------------------------------------
	.byte	PATT
	 .word	Jenova_3_005
@ 064   ----------------------------------------
	.byte	PATT
	 .word	Jenova_3_020
@ 065   ----------------------------------------
	.byte	PATT
	 .word	Jenova_3_021
@ 066   ----------------------------------------
	.byte	PATT
	 .word	Jenova_3_020
@ 067   ----------------------------------------
	.byte	PATT
	 .word	Jenova_3_021
@ 068   ----------------------------------------
	.byte	PATT
	 .word	Jenova_3_024
@ 069   ----------------------------------------
	.byte	PATT
	 .word	Jenova_3_025
@ 070   ----------------------------------------
	.byte	PATT
	 .word	Jenova_3_024
@ 071   ----------------------------------------
	.byte	PATT
	 .word	Jenova_3_025
@ 072   ----------------------------------------
	.byte	PATT
	 .word	Jenova_3_028
@ 073   ----------------------------------------
	.byte	PATT
	 .word	Jenova_3_029
@ 074   ----------------------------------------
	.byte	PATT
	 .word	Jenova_3_028
@ 075   ----------------------------------------
	.byte	PATT
	 .word	Jenova_3_029
@ 076   ----------------------------------------
	.byte	PATT
	 .word	Jenova_3_032
@ 077   ----------------------------------------
	.byte	PATT
	 .word	Jenova_3_033
@ 078   ----------------------------------------
	.byte	PATT
	 .word	Jenova_3_032
@ 079   ----------------------------------------
	.byte	PATT
	 .word	Jenova_3_033
@ 080   ----------------------------------------
	.byte	PATT
	 .word	Jenova_3_036
@ 081   ----------------------------------------
	.byte	PATT
	 .word	Jenova_3_037
@ 082   ----------------------------------------
	.byte	PATT
	 .word	Jenova_3_036
@ 083   ----------------------------------------
	.byte	PATT
	 .word	Jenova_3_037
@ 084   ----------------------------------------
	.byte	PATT
	 .word	Jenova_3_004
@ 085   ----------------------------------------
	.byte	PATT
	 .word	Jenova_3_005
@ 086   ----------------------------------------
	.byte	PATT
	 .word	Jenova_3_004
@ 087   ----------------------------------------
	.byte	PATT
	 .word	Jenova_3_005
@ 088   ----------------------------------------
	.byte	PATT
	 .word	Jenova_3_044
@ 089   ----------------------------------------
	.byte	PATT
	 .word	Jenova_3_045
@ 090   ----------------------------------------
	.byte	PATT
	 .word	Jenova_3_044
@ 091   ----------------------------------------
	.byte	PATT
	 .word	Jenova_3_045
@ 092   ----------------------------------------
	.byte	PATT
	 .word	Jenova_3_044
@ 093   ----------------------------------------
	.byte	PATT
	 .word	Jenova_3_045
@ 094   ----------------------------------------
	.byte	PATT
	 .word	Jenova_3_044
@ 095   ----------------------------------------
	.byte	PATT
	 .word	Jenova_3_045
@ 096   ----------------------------------------
	.byte	PATT
	 .word	Jenova_3_024
@ 097   ----------------------------------------
	.byte	PATT
	 .word	Jenova_3_025
@ 098   ----------------------------------------
	.byte	PATT
	 .word	Jenova_3_024
@ 099   ----------------------------------------
	.byte		N11   , Ds1 , v092
	.byte	W12
	.byte		        Gn1 
	.byte	W12
	.byte		        Gs1 
	.byte	W12
	.byte		        Gn1 
	.byte	W12
	.byte		        Ds1 
	.byte	W12
	.byte		        Cn1 
	.byte	W12
	.byte		        Gs0 
	.byte	W12
	.byte		        Gn0 
	.byte	W11
	.byte	GOTO
	 .word	Jenova_3_B1
Jenova_3_B2:
	.byte	FINE

@**************** Track 4 (Midi-Chn.4) ****************@

Jenova_4:
	.byte	KEYSH , Jenova_key+0
@ 000   ----------------------------------------
	.byte		VOICE , 38
	.byte		VOL   , 97*Jenova_mvl/mxv
	.byte		PAN   , c_v+0
	.byte	W96
@ 001   ----------------------------------------
	.byte	W96
@ 002   ----------------------------------------
	.byte	W96
@ 003   ----------------------------------------
	.byte	W96
@ 004   ----------------------------------------
	.byte	W96
@ 005   ----------------------------------------
	.byte	W96
@ 006   ----------------------------------------
	.byte		N05   , An3 , v127
	.byte	W06
	.byte		N05   
	.byte	W06
	.byte		N05   
	.byte	W06
	.byte		N05   
	.byte	W06
	.byte		N05   
	.byte	W72
@ 007   ----------------------------------------
	.byte	W96
@ 008   ----------------------------------------
	.byte	W96
@ 009   ----------------------------------------
	.byte	W96
@ 010   ----------------------------------------
	.byte		N05   
	.byte	W06
	.byte		N05   
	.byte	W06
	.byte		N05   
	.byte	W06
	.byte		N05   
	.byte	W06
	.byte		N05   
	.byte	W36
	.byte		N05   
	.byte	W06
	.byte		N05   
	.byte	W06
	.byte		N05   
	.byte	W06
	.byte		N05   
	.byte	W06
	.byte		N05   
	.byte	W12
@ 011   ----------------------------------------
Jenova_4_011:
	.byte	W12
	.byte		N05   , An3 , v127
	.byte	W06
	.byte		N05   
	.byte	W06
	.byte		N05   
	.byte	W06
	.byte		N05   
	.byte	W06
	.byte		N05   
	.byte	W12
	.byte		N05   
	.byte	W06
	.byte		N05   
	.byte	W06
	.byte		N05   
	.byte	W06
	.byte		N05   
	.byte	W06
	.byte		N05   
	.byte	W24
	.byte	PEND
Jenova_4_B1:
@ 012   ----------------------------------------
	.byte	W96
@ 013   ----------------------------------------
	.byte	W96
@ 014   ----------------------------------------
	.byte	W96
@ 015   ----------------------------------------
	.byte	W96
@ 016   ----------------------------------------
Jenova_4_016:
	.byte		N05   , An3 , v127
	.byte	W06
	.byte		N05   
	.byte	W06
	.byte		N05   
	.byte	W24
	.byte		N05   
	.byte	W06
	.byte		N05   
	.byte	W06
	.byte		N05   
	.byte	W48
	.byte	PEND
@ 017   ----------------------------------------
	.byte	PATT
	 .word	Jenova_4_011
@ 018   ----------------------------------------
	.byte	W96
@ 019   ----------------------------------------
	.byte	W96
@ 020   ----------------------------------------
	.byte	W96
@ 021   ----------------------------------------
	.byte	W96
@ 022   ----------------------------------------
	.byte	W96
@ 023   ----------------------------------------
	.byte	W96
@ 024   ----------------------------------------
Jenova_4_024:
	.byte		N05   , Gn3 , v127
	.byte	W06
	.byte		N05   
	.byte	W06
	.byte		N05   
	.byte	W24
	.byte		N05   
	.byte	W06
	.byte		N05   
	.byte	W06
	.byte		N05   
	.byte	W48
	.byte	PEND
@ 025   ----------------------------------------
Jenova_4_025:
	.byte	W12
	.byte		N05   , Gn3 , v127
	.byte	W06
	.byte		N05   
	.byte	W06
	.byte		N05   
	.byte	W06
	.byte		N05   
	.byte	W06
	.byte		N05   
	.byte	W12
	.byte		N05   
	.byte	W06
	.byte		N05   
	.byte	W06
	.byte		N05   
	.byte	W06
	.byte		N05   
	.byte	W06
	.byte		N05   
	.byte	W24
	.byte	PEND
@ 026   ----------------------------------------
	.byte	W96
@ 027   ----------------------------------------
	.byte	W96
@ 028   ----------------------------------------
	.byte	W96
@ 029   ----------------------------------------
	.byte	W72
	.byte		N04   , An3 
	.byte	W06
	.byte		        Bn3 
	.byte	W06
	.byte		        Cn4 
	.byte	W06
	.byte		        Dn4 
	.byte	W06
@ 030   ----------------------------------------
	.byte		TIE   , En4 , v108
	.byte	W96
@ 031   ----------------------------------------
	.byte	W90
	.byte		EOT   
	.byte	W06
@ 032   ----------------------------------------
	.byte	W96
@ 033   ----------------------------------------
	.byte	W72
	.byte		N04   , En3 , v127
	.byte	W06
	.byte		        Fs3 
	.byte	W06
	.byte		        Gn3 
	.byte	W06
	.byte		        An3 
	.byte	W06
@ 034   ----------------------------------------
	.byte		TIE   , Bn3 , v108
	.byte	W96
@ 035   ----------------------------------------
	.byte	W90
	.byte		EOT   
	.byte	W06
@ 036   ----------------------------------------
	.byte	W96
@ 037   ----------------------------------------
	.byte	W72
	.byte		N04   , Gn3 , v127
	.byte	W06
	.byte		        An3 
	.byte	W06
	.byte		        As3 
	.byte	W06
	.byte		        Cn4 
	.byte	W06
@ 038   ----------------------------------------
	.byte		TIE   , Dn4 , v108
	.byte	W96
@ 039   ----------------------------------------
	.byte	W90
	.byte		EOT   
	.byte	W06
@ 040   ----------------------------------------
	.byte	W96
@ 041   ----------------------------------------
	.byte	W72
	.byte		N04   , Dn3 , v127
	.byte	W06
	.byte		        En3 
	.byte	W06
	.byte		        Fn3 
	.byte	W06
	.byte		        Gn3 
	.byte	W06
@ 042   ----------------------------------------
	.byte		TIE   , An3 , v108
	.byte	W96
@ 043   ----------------------------------------
	.byte	W66
	.byte		EOT   
	.byte	W06
	.byte		N05   , Dn3 , v127
	.byte	W06
	.byte		        En3 
	.byte	W06
	.byte		        Fn3 
	.byte	W06
	.byte		        Gn3 
	.byte	W06
@ 044   ----------------------------------------
	.byte		TIE   , An3 , v108
	.byte	W96
@ 045   ----------------------------------------
	.byte	W20
	.byte		EOT   
	.byte	W04
	.byte		N11   , Fn3 
	.byte	W12
	.byte		        Gn3 
	.byte	W12
	.byte		N20   , An3 , v127
	.byte	W24
	.byte		        Cn4 
	.byte	W24
@ 046   ----------------------------------------
	.byte		        Bn3 , v108
	.byte	W24
	.byte		N11   , An3 
	.byte	W12
	.byte		TIE   , Gn3 
	.byte	W60
@ 047   ----------------------------------------
	.byte	W90
	.byte		EOT   
	.byte	W06
@ 048   ----------------------------------------
	.byte		TIE   , Cn4 
	.byte	W96
@ 049   ----------------------------------------
	.byte	W20
	.byte		EOT   
	.byte	W04
	.byte		N11   , Gs3 
	.byte	W12
	.byte		        As3 
	.byte	W12
	.byte		N20   , Cn4 , v127
	.byte	W24
	.byte		        Ds4 
	.byte	W24
@ 050   ----------------------------------------
	.byte		        Dn4 , v108
	.byte	W24
	.byte		N11   , Cn4 
	.byte	W12
	.byte		TIE   , As3 
	.byte	W60
@ 051   ----------------------------------------
	.byte	W42
	.byte		EOT   
	.byte	W06
	.byte		N48   
	.byte	W48
@ 052   ----------------------------------------
	.byte		TIE   , Cn4 , v127
	.byte	W96
@ 053   ----------------------------------------
	.byte	W90
	.byte		EOT   
	.byte	W06
@ 054   ----------------------------------------
	.byte	W96
@ 055   ----------------------------------------
	.byte	W96
@ 056   ----------------------------------------
	.byte	W96
@ 057   ----------------------------------------
	.byte	W96
@ 058   ----------------------------------------
	.byte	W96
@ 059   ----------------------------------------
	.byte	W96
@ 060   ----------------------------------------
	.byte	PATT
	 .word	Jenova_4_016
@ 061   ----------------------------------------
	.byte	PATT
	 .word	Jenova_4_011
@ 062   ----------------------------------------
	.byte	W96
@ 063   ----------------------------------------
	.byte	W96
@ 064   ----------------------------------------
	.byte	W96
@ 065   ----------------------------------------
	.byte	W96
@ 066   ----------------------------------------
	.byte	W96
@ 067   ----------------------------------------
	.byte	W96
@ 068   ----------------------------------------
	.byte	PATT
	 .word	Jenova_4_024
@ 069   ----------------------------------------
	.byte	PATT
	 .word	Jenova_4_025
@ 070   ----------------------------------------
	.byte	W96
@ 071   ----------------------------------------
	.byte	W96
@ 072   ----------------------------------------
	.byte	W96
@ 073   ----------------------------------------
	.byte	W72
	.byte		N05   , An3 , v127
	.byte	W06
	.byte		        Bn3 
	.byte	W06
	.byte		        Cn4 
	.byte	W06
	.byte		        Dn4 
	.byte	W06
@ 074   ----------------------------------------
	.byte		TIE   , En4 , v108
	.byte	W96
@ 075   ----------------------------------------
	.byte	W90
	.byte		EOT   
	.byte	W06
@ 076   ----------------------------------------
	.byte	W96
@ 077   ----------------------------------------
	.byte	W72
	.byte		N05   , En3 , v127
	.byte	W06
	.byte		        Fs3 
	.byte	W06
	.byte		        Gn3 
	.byte	W06
	.byte		        An3 
	.byte	W06
@ 078   ----------------------------------------
	.byte		TIE   , Bn3 , v108
	.byte	W96
@ 079   ----------------------------------------
	.byte	W90
	.byte		EOT   
	.byte	W06
@ 080   ----------------------------------------
	.byte	W96
@ 081   ----------------------------------------
	.byte	W72
	.byte		N05   , Gn3 , v127
	.byte	W06
	.byte		        An3 
	.byte	W06
	.byte		        As3 
	.byte	W06
	.byte		        Cn4 
	.byte	W06
@ 082   ----------------------------------------
	.byte		TIE   , Dn4 , v108
	.byte	W96
@ 083   ----------------------------------------
	.byte	W90
	.byte		EOT   
	.byte	W06
@ 084   ----------------------------------------
	.byte	W96
@ 085   ----------------------------------------
	.byte	W72
	.byte		N05   , Dn3 , v127
	.byte	W06
	.byte		        En3 
	.byte	W06
	.byte		        Fn3 
	.byte	W06
	.byte		        Gn3 
	.byte	W06
@ 086   ----------------------------------------
	.byte		TIE   , An3 , v108
	.byte	W96
@ 087   ----------------------------------------
	.byte	W66
	.byte		EOT   
	.byte	W06
	.byte		N05   , Dn3 , v127
	.byte	W06
	.byte		        En3 
	.byte	W06
	.byte		        Fn3 
	.byte	W06
	.byte		        Gn3 
	.byte	W06
@ 088   ----------------------------------------
	.byte		TIE   , An3 
	.byte	W96
@ 089   ----------------------------------------
	.byte	W20
	.byte		EOT   
	.byte	W04
	.byte		N11   , Fn3 
	.byte	W12
	.byte		        Gn3 
	.byte	W12
	.byte		N20   , An3 
	.byte	W24
	.byte		        Cn4 
	.byte	W24
@ 090   ----------------------------------------
	.byte		        Bn3 
	.byte	W24
	.byte		N11   , An3 
	.byte	W12
	.byte		TIE   , Gn3 
	.byte	W60
@ 091   ----------------------------------------
	.byte	W90
	.byte		EOT   
	.byte	W06
@ 092   ----------------------------------------
	.byte		TIE   , Cn4 
	.byte	W96
@ 093   ----------------------------------------
	.byte	W20
	.byte		EOT   
	.byte	W04
	.byte		N11   , Gs3 
	.byte	W12
	.byte		        As3 
	.byte	W12
	.byte		N20   , Cn4 
	.byte	W24
	.byte		        Ds4 
	.byte	W24
@ 094   ----------------------------------------
	.byte		        Dn4 
	.byte	W24
	.byte		N11   , Cn4 
	.byte	W12
	.byte		TIE   , As3 
	.byte	W60
@ 095   ----------------------------------------
	.byte	W42
	.byte		EOT   
	.byte	W06
	.byte		N42   
	.byte	W48
@ 096   ----------------------------------------
	.byte		TIE   , Cn4 
	.byte	W96
@ 097   ----------------------------------------
	.byte	W90
	.byte		EOT   
	.byte	W06
@ 098   ----------------------------------------
	.byte	W96
@ 099   ----------------------------------------
	.byte	W92
	.byte	W03
	.byte	GOTO
	 .word	Jenova_4_B1
Jenova_4_B2:
	.byte	FINE

@**************** Track 5 (Midi-Chn.5) ****************@

Jenova_5:
	.byte	KEYSH , Jenova_key+0
@ 000   ----------------------------------------
	.byte		VOICE , 30
	.byte		VOL   , 97*Jenova_mvl/mxv
	.byte		PAN   , c_v+0
	.byte	W96
@ 001   ----------------------------------------
	.byte	W96
@ 002   ----------------------------------------
	.byte	W96
@ 003   ----------------------------------------
	.byte	W96
@ 004   ----------------------------------------
	.byte	W96
@ 005   ----------------------------------------
	.byte	W96
@ 006   ----------------------------------------
	.byte		N05   , An3 , v076
	.byte	W06
	.byte		N05   
	.byte	W06
	.byte		N05   
	.byte	W06
	.byte		N05   
	.byte	W06
	.byte		N05   
	.byte	W72
@ 007   ----------------------------------------
	.byte	W96
@ 008   ----------------------------------------
	.byte	W96
@ 009   ----------------------------------------
	.byte	W96
@ 010   ----------------------------------------
	.byte		N05   
	.byte	W06
	.byte		N05   
	.byte	W06
	.byte		N05   
	.byte	W06
	.byte		N05   
	.byte	W06
	.byte		N05   
	.byte	W36
	.byte		N05   
	.byte	W06
	.byte		N05   
	.byte	W06
	.byte		N05   
	.byte	W06
	.byte		N05   
	.byte	W06
	.byte		N05   
	.byte	W12
@ 011   ----------------------------------------
Jenova_5_011:
	.byte	W12
	.byte		N05   , An3 , v076
	.byte	W06
	.byte		N05   
	.byte	W06
	.byte		N05   
	.byte	W06
	.byte		N05   
	.byte	W06
	.byte		N05   
	.byte	W12
	.byte		N05   
	.byte	W06
	.byte		N05   
	.byte	W06
	.byte		N05   
	.byte	W06
	.byte		N05   
	.byte	W06
	.byte		N05   
	.byte	W24
	.byte	PEND
Jenova_5_B1:
@ 012   ----------------------------------------
	.byte	W96
@ 013   ----------------------------------------
	.byte	W96
@ 014   ----------------------------------------
	.byte	W96
@ 015   ----------------------------------------
	.byte	W96
@ 016   ----------------------------------------
Jenova_5_016:
	.byte		N05   , An3 , v076
	.byte	W06
	.byte		N05   
	.byte	W06
	.byte		N05   
	.byte	W24
	.byte		N05   
	.byte	W06
	.byte		N05   
	.byte	W06
	.byte		N05   
	.byte	W48
	.byte	PEND
@ 017   ----------------------------------------
	.byte	PATT
	 .word	Jenova_5_011
@ 018   ----------------------------------------
	.byte	W96
@ 019   ----------------------------------------
	.byte	W96
@ 020   ----------------------------------------
	.byte	W96
@ 021   ----------------------------------------
	.byte	W96
@ 022   ----------------------------------------
	.byte	W96
@ 023   ----------------------------------------
	.byte	W96
@ 024   ----------------------------------------
Jenova_5_024:
	.byte		N05   , Gn3 , v076
	.byte	W06
	.byte		N05   
	.byte	W06
	.byte		N05   
	.byte	W24
	.byte		N05   
	.byte	W06
	.byte		N05   
	.byte	W06
	.byte		N05   
	.byte	W48
	.byte	PEND
@ 025   ----------------------------------------
Jenova_5_025:
	.byte	W12
	.byte		N05   , Gn3 , v076
	.byte	W06
	.byte		N05   
	.byte	W06
	.byte		N05   
	.byte	W06
	.byte		N05   
	.byte	W06
	.byte		N05   
	.byte	W12
	.byte		N05   
	.byte	W06
	.byte		N05   
	.byte	W06
	.byte		N05   
	.byte	W06
	.byte		N05   
	.byte	W06
	.byte		N05   
	.byte	W24
	.byte	PEND
@ 026   ----------------------------------------
	.byte	W96
@ 027   ----------------------------------------
	.byte	W96
@ 028   ----------------------------------------
	.byte	W96
@ 029   ----------------------------------------
Jenova_5_029:
	.byte	W72
	.byte		N05   , An3 , v076
	.byte	W06
	.byte		N05   
	.byte	W06
	.byte		N05   
	.byte	W06
	.byte		N05   
	.byte	W06
	.byte	PEND
@ 030   ----------------------------------------
	.byte		N05   
	.byte	W96
@ 031   ----------------------------------------
	.byte	W96
@ 032   ----------------------------------------
	.byte	W96
@ 033   ----------------------------------------
	.byte	PATT
	 .word	Jenova_5_029
@ 034   ----------------------------------------
	.byte		N05   , An3 , v076
	.byte	W96
@ 035   ----------------------------------------
	.byte	W96
@ 036   ----------------------------------------
	.byte	W96
@ 037   ----------------------------------------
	.byte	PATT
	 .word	Jenova_5_029
@ 038   ----------------------------------------
	.byte		N05   , An3 , v076
	.byte	W96
@ 039   ----------------------------------------
	.byte	W96
@ 040   ----------------------------------------
	.byte	W96
@ 041   ----------------------------------------
	.byte	PATT
	 .word	Jenova_5_029
@ 042   ----------------------------------------
	.byte		N05   , An3 , v076
	.byte	W96
@ 043   ----------------------------------------
	.byte	W96
@ 044   ----------------------------------------
	.byte	W96
@ 045   ----------------------------------------
	.byte	W96
@ 046   ----------------------------------------
	.byte	W96
@ 047   ----------------------------------------
	.byte	W96
@ 048   ----------------------------------------
	.byte	W96
@ 049   ----------------------------------------
	.byte	W96
@ 050   ----------------------------------------
	.byte	W96
@ 051   ----------------------------------------
	.byte	W96
@ 052   ----------------------------------------
	.byte	W96
@ 053   ----------------------------------------
	.byte	W96
@ 054   ----------------------------------------
	.byte	W96
@ 055   ----------------------------------------
	.byte	W96
@ 056   ----------------------------------------
	.byte	W96
@ 057   ----------------------------------------
	.byte	W96
@ 058   ----------------------------------------
	.byte	W96
@ 059   ----------------------------------------
	.byte	W96
@ 060   ----------------------------------------
	.byte	PATT
	 .word	Jenova_5_016
@ 061   ----------------------------------------
	.byte	PATT
	 .word	Jenova_5_011
@ 062   ----------------------------------------
	.byte	W96
@ 063   ----------------------------------------
	.byte	W96
@ 064   ----------------------------------------
	.byte	W96
@ 065   ----------------------------------------
	.byte	W96
@ 066   ----------------------------------------
	.byte	W96
@ 067   ----------------------------------------
	.byte	W96
@ 068   ----------------------------------------
	.byte	PATT
	 .word	Jenova_5_024
@ 069   ----------------------------------------
	.byte	PATT
	 .word	Jenova_5_025
@ 070   ----------------------------------------
	.byte	W96
@ 071   ----------------------------------------
	.byte	W96
@ 072   ----------------------------------------
	.byte	W96
@ 073   ----------------------------------------
	.byte	PATT
	 .word	Jenova_5_029
@ 074   ----------------------------------------
	.byte		N05   , An3 , v076
	.byte	W96
@ 075   ----------------------------------------
	.byte	W96
@ 076   ----------------------------------------
	.byte	W96
@ 077   ----------------------------------------
	.byte	PATT
	 .word	Jenova_5_029
@ 078   ----------------------------------------
	.byte		N05   , An3 , v076
	.byte	W96
@ 079   ----------------------------------------
	.byte	W96
@ 080   ----------------------------------------
	.byte	W96
@ 081   ----------------------------------------
	.byte	PATT
	 .word	Jenova_5_029
@ 082   ----------------------------------------
	.byte		N05   , An3 , v076
	.byte	W96
@ 083   ----------------------------------------
	.byte	W96
@ 084   ----------------------------------------
	.byte	W96
@ 085   ----------------------------------------
	.byte	PATT
	 .word	Jenova_5_029
@ 086   ----------------------------------------
	.byte		N05   , An3 , v076
	.byte	W96
@ 087   ----------------------------------------
	.byte	W96
@ 088   ----------------------------------------
	.byte	W96
@ 089   ----------------------------------------
	.byte	W96
@ 090   ----------------------------------------
	.byte	W96
@ 091   ----------------------------------------
	.byte	W96
@ 092   ----------------------------------------
	.byte	W96
@ 093   ----------------------------------------
	.byte	W96
@ 094   ----------------------------------------
	.byte	W96
@ 095   ----------------------------------------
	.byte	W96
@ 096   ----------------------------------------
	.byte	W96
@ 097   ----------------------------------------
	.byte	W96
@ 098   ----------------------------------------
	.byte	W96
@ 099   ----------------------------------------
	.byte	W92
	.byte	W03
	.byte	GOTO
	 .word	Jenova_5_B1
Jenova_5_B2:
	.byte	FINE

@**************** Track 6 (Midi-Chn.6) ****************@

Jenova_6:
	.byte	KEYSH , Jenova_key+0
@ 000   ----------------------------------------
	.byte		VOICE , 47
	.byte		VOL   , 94*Jenova_mvl/mxv
	.byte		PAN   , c_v+0
	.byte	W96
@ 001   ----------------------------------------
	.byte	W96
@ 002   ----------------------------------------
	.byte	W96
@ 003   ----------------------------------------
	.byte	W96
@ 004   ----------------------------------------
	.byte	W96
@ 005   ----------------------------------------
	.byte	W96
@ 006   ----------------------------------------
	.byte	W72
	.byte		N11   , Cn2 , v092
	.byte	W12
	.byte		        Gn1 
	.byte	W12
@ 007   ----------------------------------------
	.byte	W12
	.byte		        Cn1 
	.byte	W12
	.byte		        Gn0 
	.byte	W24
	.byte		        Cn2 
	.byte	W24
	.byte		        Gn1 
	.byte	W24
@ 008   ----------------------------------------
	.byte	W96
@ 009   ----------------------------------------
	.byte	W96
@ 010   ----------------------------------------
	.byte	W96
@ 011   ----------------------------------------
	.byte	W96
Jenova_6_B1:
@ 012   ----------------------------------------
	.byte	W96
@ 013   ----------------------------------------
	.byte	W96
@ 014   ----------------------------------------
	.byte	W96
@ 015   ----------------------------------------
	.byte	W96
@ 016   ----------------------------------------
	.byte	W96
@ 017   ----------------------------------------
	.byte	W96
@ 018   ----------------------------------------
Jenova_6_018:
	.byte	W12
	.byte		N11   , As2 , v092
	.byte	W12
	.byte		N11   
	.byte	W12
	.byte		N11   
	.byte	W12
	.byte		N11   
	.byte	W12
	.byte		N11   
	.byte	W12
	.byte		N11   
	.byte	W12
	.byte		N11   
	.byte	W12
	.byte	PEND
@ 019   ----------------------------------------
Jenova_6_019:
	.byte		N11   , An2 , v092
	.byte	W24
	.byte		        Dn2 
	.byte	W24
	.byte		        An2 
	.byte	W24
	.byte		        Dn2 
	.byte	W24
	.byte	PEND
@ 020   ----------------------------------------
	.byte	W96
@ 021   ----------------------------------------
	.byte	W96
@ 022   ----------------------------------------
	.byte	W96
@ 023   ----------------------------------------
	.byte	W96
@ 024   ----------------------------------------
	.byte	W96
@ 025   ----------------------------------------
	.byte	W96
@ 026   ----------------------------------------
Jenova_6_026:
	.byte		N17   , Bn2 , v092
	.byte	W24
	.byte		N11   
	.byte	W12
	.byte		N17   , Bn1 
	.byte	W24
	.byte		N05   
	.byte	W12
	.byte		N11   , Bn2 
	.byte	W24
	.byte	PEND
@ 027   ----------------------------------------
Jenova_6_027:
	.byte	W12
	.byte		N17   , Bn2 , v092
	.byte	W24
	.byte		N11   
	.byte	W12
	.byte		N17   , Bn1 
	.byte	W24
	.byte		        Bn2 
	.byte	W24
	.byte	PEND
@ 028   ----------------------------------------
	.byte	W96
@ 029   ----------------------------------------
	.byte	W96
@ 030   ----------------------------------------
	.byte	W96
@ 031   ----------------------------------------
	.byte	W96
@ 032   ----------------------------------------
	.byte	W96
@ 033   ----------------------------------------
	.byte	W96
@ 034   ----------------------------------------
	.byte	W96
@ 035   ----------------------------------------
Jenova_6_035:
	.byte	W12
	.byte		N11   , Bn1 , v092
	.byte	W12
	.byte		N11   
	.byte	W12
	.byte		N11   
	.byte	W12
	.byte		N11   
	.byte	W12
	.byte		N11   
	.byte	W12
	.byte		N11   
	.byte	W12
	.byte		N11   
	.byte	W12
	.byte	PEND
@ 036   ----------------------------------------
	.byte	W96
@ 037   ----------------------------------------
	.byte	W96
@ 038   ----------------------------------------
	.byte	W96
@ 039   ----------------------------------------
	.byte	W96
@ 040   ----------------------------------------
	.byte	W96
@ 041   ----------------------------------------
	.byte	W96
@ 042   ----------------------------------------
	.byte	W96
@ 043   ----------------------------------------
	.byte	PATT
	 .word	Jenova_6_035
@ 044   ----------------------------------------
	.byte	W96
@ 045   ----------------------------------------
	.byte	W96
@ 046   ----------------------------------------
	.byte	W96
@ 047   ----------------------------------------
Jenova_6_047:
	.byte	W72
	.byte		N05   , Bn2 , v092
	.byte	W06
	.byte		N05   
	.byte	W06
	.byte		N05   
	.byte	W06
	.byte		N05   
	.byte	W06
	.byte	PEND
@ 048   ----------------------------------------
	.byte		N05   
	.byte	W96
@ 049   ----------------------------------------
	.byte	W96
@ 050   ----------------------------------------
	.byte	W96
@ 051   ----------------------------------------
	.byte	W96
@ 052   ----------------------------------------
	.byte	W96
@ 053   ----------------------------------------
	.byte	W96
@ 054   ----------------------------------------
	.byte	W96
@ 055   ----------------------------------------
	.byte	W96
@ 056   ----------------------------------------
	.byte	W96
@ 057   ----------------------------------------
	.byte	W96
@ 058   ----------------------------------------
	.byte	W96
@ 059   ----------------------------------------
	.byte	W96
@ 060   ----------------------------------------
	.byte	W96
@ 061   ----------------------------------------
	.byte	W96
@ 062   ----------------------------------------
	.byte	PATT
	 .word	Jenova_6_018
@ 063   ----------------------------------------
	.byte	PATT
	 .word	Jenova_6_019
@ 064   ----------------------------------------
	.byte	W96
@ 065   ----------------------------------------
	.byte	W96
@ 066   ----------------------------------------
	.byte	W96
@ 067   ----------------------------------------
	.byte	W96
@ 068   ----------------------------------------
	.byte	W96
@ 069   ----------------------------------------
	.byte	W96
@ 070   ----------------------------------------
	.byte	PATT
	 .word	Jenova_6_026
@ 071   ----------------------------------------
	.byte	PATT
	 .word	Jenova_6_027
@ 072   ----------------------------------------
	.byte	W96
@ 073   ----------------------------------------
	.byte	W96
@ 074   ----------------------------------------
	.byte	W96
@ 075   ----------------------------------------
	.byte	W96
@ 076   ----------------------------------------
	.byte	W96
@ 077   ----------------------------------------
	.byte	W96
@ 078   ----------------------------------------
	.byte	W96
@ 079   ----------------------------------------
	.byte	PATT
	 .word	Jenova_6_035
@ 080   ----------------------------------------
	.byte	W96
@ 081   ----------------------------------------
	.byte	W96
@ 082   ----------------------------------------
	.byte	W96
@ 083   ----------------------------------------
	.byte	W96
@ 084   ----------------------------------------
	.byte	W96
@ 085   ----------------------------------------
	.byte	W96
@ 086   ----------------------------------------
	.byte	W96
@ 087   ----------------------------------------
	.byte	PATT
	 .word	Jenova_6_035
@ 088   ----------------------------------------
	.byte	W96
@ 089   ----------------------------------------
	.byte	W96
@ 090   ----------------------------------------
	.byte	W96
@ 091   ----------------------------------------
	.byte	PATT
	 .word	Jenova_6_047
@ 092   ----------------------------------------
	.byte		N05   , Bn2 , v092
	.byte	W96
@ 093   ----------------------------------------
	.byte	W96
@ 094   ----------------------------------------
	.byte	W96
@ 095   ----------------------------------------
	.byte	W96
@ 096   ----------------------------------------
	.byte	W96
@ 097   ----------------------------------------
	.byte	W96
@ 098   ----------------------------------------
	.byte	W96
@ 099   ----------------------------------------
	.byte	W92
	.byte	W03
	.byte	GOTO
	 .word	Jenova_6_B1
Jenova_6_B2:
	.byte	FINE

@**************** Track 7 (Midi-Chn.7) ****************@

Jenova_7:
	.byte	KEYSH , Jenova_key+0
@ 000   ----------------------------------------
	.byte		VOICE , 48
	.byte		VOL   , 94*Jenova_mvl/mxv
	.byte		PAN   , c_v+0
	.byte	W96
@ 001   ----------------------------------------
	.byte	W96
@ 002   ----------------------------------------
	.byte	W96
@ 003   ----------------------------------------
	.byte	W96
@ 004   ----------------------------------------
	.byte	W96
@ 005   ----------------------------------------
	.byte	W96
@ 006   ----------------------------------------
	.byte	W96
@ 007   ----------------------------------------
	.byte	W96
@ 008   ----------------------------------------
	.byte	W96
@ 009   ----------------------------------------
	.byte	W96
@ 010   ----------------------------------------
	.byte	W96
@ 011   ----------------------------------------
	.byte	W96
Jenova_7_B1:
@ 012   ----------------------------------------
Jenova_7_012:
	.byte		N12   , Fn4 , v108
	.byte	W12
	.byte		N04   , En4 
	.byte	W12
	.byte		N12   , Fn4 
	.byte	W12
	.byte		N04   , En4 
	.byte	W12
	.byte		N12   , Dn4 
	.byte	W12
	.byte		N04   , Cn4 
	.byte	W12
	.byte		N12   , Dn4 
	.byte	W12
	.byte		N04   , Cn4 
	.byte	W12
	.byte	PEND
@ 013   ----------------------------------------
	.byte	PATT
	 .word	Jenova_7_012
@ 014   ----------------------------------------
	.byte	PATT
	 .word	Jenova_7_012
@ 015   ----------------------------------------
	.byte	PATT
	 .word	Jenova_7_012
@ 016   ----------------------------------------
	.byte	PATT
	 .word	Jenova_7_012
@ 017   ----------------------------------------
	.byte	PATT
	 .word	Jenova_7_012
@ 018   ----------------------------------------
	.byte		N12   , Fn4 , v108
	.byte	W12
	.byte		N04   , En4 
	.byte	W12
	.byte		N12   , Fn4 
	.byte	W12
	.byte		N04   , En4 
	.byte	W12
	.byte		N12   , An4 
	.byte	W12
	.byte		N04   , Gn4 
	.byte	W12
	.byte		N12   , An4 
	.byte	W12
	.byte		N04   , Gn4 
	.byte	W12
@ 019   ----------------------------------------
	.byte	PATT
	 .word	Jenova_7_012
@ 020   ----------------------------------------
Jenova_7_020:
	.byte		N12   , Cn4 , v108
	.byte	W12
	.byte		N04   , As3 
	.byte	W12
	.byte		N12   , Cn4 
	.byte	W12
	.byte		N04   , As3 
	.byte	W12
	.byte		N12   , Gs3 
	.byte	W12
	.byte		N04   , Gn3 
	.byte	W12
	.byte		N12   , Gs3 
	.byte	W12
	.byte		N04   , Gn3 
	.byte	W12
	.byte	PEND
@ 021   ----------------------------------------
	.byte	PATT
	 .word	Jenova_7_020
@ 022   ----------------------------------------
	.byte	PATT
	 .word	Jenova_7_020
@ 023   ----------------------------------------
	.byte	PATT
	 .word	Jenova_7_020
@ 024   ----------------------------------------
Jenova_7_024:
	.byte		N12   , Ds4 , v108
	.byte	W12
	.byte		N04   , Dn4 
	.byte	W12
	.byte		N12   , Ds4 
	.byte	W12
	.byte		N04   , Dn4 
	.byte	W12
	.byte		N12   , Cn4 
	.byte	W12
	.byte		N04   , As3 
	.byte	W12
	.byte		N12   , Cn4 
	.byte	W12
	.byte		N04   , As3 
	.byte	W12
	.byte	PEND
@ 025   ----------------------------------------
	.byte	PATT
	 .word	Jenova_7_024
@ 026   ----------------------------------------
	.byte		N12   , Ds4 , v108
	.byte	W12
	.byte		N04   , Dn4 
	.byte	W12
	.byte		N12   , Ds4 
	.byte	W12
	.byte		        Gn4 
	.byte	W12
	.byte		N04   , Fn4 
	.byte	W12
	.byte		N12   , Gn4 
	.byte	W12
	.byte		        As4 
	.byte	W12
	.byte		N04   , Gs4 , v127
	.byte	W12
@ 027   ----------------------------------------
	.byte		N12   , As4 , v108
	.byte	W12
	.byte		        Gn4 
	.byte	W12
	.byte		N04   , Fn4 
	.byte	W12
	.byte		N12   , Gn4 
	.byte	W12
	.byte		        Ds4 
	.byte	W12
	.byte		N04   , Dn4 
	.byte	W12
	.byte		N12   , Ds4 
	.byte	W12
	.byte		N04   , Dn4 
	.byte	W12
@ 028   ----------------------------------------
	.byte	W96
@ 029   ----------------------------------------
	.byte	W96
@ 030   ----------------------------------------
	.byte	W96
@ 031   ----------------------------------------
	.byte	W96
@ 032   ----------------------------------------
	.byte	W96
@ 033   ----------------------------------------
	.byte	W96
@ 034   ----------------------------------------
	.byte	W96
@ 035   ----------------------------------------
	.byte	W96
@ 036   ----------------------------------------
	.byte	W96
@ 037   ----------------------------------------
	.byte	W96
@ 038   ----------------------------------------
	.byte	W96
@ 039   ----------------------------------------
	.byte	W96
@ 040   ----------------------------------------
	.byte	W96
@ 041   ----------------------------------------
	.byte	W96
@ 042   ----------------------------------------
	.byte	W96
@ 043   ----------------------------------------
	.byte	W96
@ 044   ----------------------------------------
	.byte	W96
@ 045   ----------------------------------------
	.byte	W96
@ 046   ----------------------------------------
	.byte	W96
@ 047   ----------------------------------------
	.byte	W96
@ 048   ----------------------------------------
	.byte	W96
@ 049   ----------------------------------------
	.byte	W96
@ 050   ----------------------------------------
	.byte	W96
@ 051   ----------------------------------------
	.byte	W96
@ 052   ----------------------------------------
Jenova_7_052:
	.byte		N12   , Ds4 , v092
	.byte	W12
	.byte		N04   , Dn4 
	.byte	W12
	.byte		N12   , Ds4 
	.byte	W12
	.byte		N04   , Dn4 
	.byte	W12
	.byte		N12   , Cn4 
	.byte	W12
	.byte		N04   , As3 
	.byte	W12
	.byte		N12   , Cn4 
	.byte	W12
	.byte		N04   , As3 
	.byte	W12
	.byte	PEND
@ 053   ----------------------------------------
	.byte	PATT
	 .word	Jenova_7_052
@ 054   ----------------------------------------
	.byte	PATT
	 .word	Jenova_7_052
@ 055   ----------------------------------------
	.byte	PATT
	 .word	Jenova_7_052
@ 056   ----------------------------------------
Jenova_7_056:
	.byte		N12   , Fn4 , v092
	.byte	W12
	.byte		N04   , En4 
	.byte	W12
	.byte		N12   , Fn4 
	.byte	W12
	.byte		N04   , En4 
	.byte	W12
	.byte		N12   , Dn4 
	.byte	W12
	.byte		N04   , Cn4 
	.byte	W12
	.byte		N12   , Dn4 
	.byte	W12
	.byte		N04   , Cn4 
	.byte	W12
	.byte	PEND
@ 057   ----------------------------------------
	.byte	PATT
	 .word	Jenova_7_056
@ 058   ----------------------------------------
	.byte	PATT
	 .word	Jenova_7_056
@ 059   ----------------------------------------
	.byte	PATT
	 .word	Jenova_7_056
@ 060   ----------------------------------------
	.byte	PATT
	 .word	Jenova_7_056
@ 061   ----------------------------------------
	.byte	PATT
	 .word	Jenova_7_056
@ 062   ----------------------------------------
	.byte		N12   , Fn4 , v092
	.byte	W12
	.byte		N04   , En4 
	.byte	W12
	.byte		N12   , Fn4 
	.byte	W12
	.byte		N04   , En4 
	.byte	W12
	.byte		N12   , An4 
	.byte	W12
	.byte		N04   , Gn4 
	.byte	W12
	.byte		N12   , An4 
	.byte	W12
	.byte		N04   , Gn4 
	.byte	W12
@ 063   ----------------------------------------
	.byte	PATT
	 .word	Jenova_7_056
@ 064   ----------------------------------------
Jenova_7_064:
	.byte		N12   , Cn4 , v092
	.byte	W12
	.byte		N04   , As3 
	.byte	W12
	.byte		N12   , Cn4 
	.byte	W12
	.byte		N04   , As3 
	.byte	W12
	.byte		N12   , Gs3 
	.byte	W12
	.byte		N04   , Gn3 
	.byte	W12
	.byte		N12   , Gs3 
	.byte	W12
	.byte		N04   , Gn3 
	.byte	W12
	.byte	PEND
@ 065   ----------------------------------------
	.byte	PATT
	 .word	Jenova_7_064
@ 066   ----------------------------------------
	.byte	PATT
	 .word	Jenova_7_064
@ 067   ----------------------------------------
	.byte	PATT
	 .word	Jenova_7_064
@ 068   ----------------------------------------
	.byte	PATT
	 .word	Jenova_7_052
@ 069   ----------------------------------------
	.byte	PATT
	 .word	Jenova_7_052
@ 070   ----------------------------------------
	.byte		N12   , Ds4 , v092
	.byte	W12
	.byte		N04   , Dn4 
	.byte	W12
	.byte		N12   , Ds4 
	.byte	W12
	.byte		        Gn4 
	.byte	W12
	.byte		N04   , Fn4 
	.byte	W12
	.byte		N12   , Gn4 
	.byte	W12
	.byte		        As4 
	.byte	W12
	.byte		N04   , Gs4 , v127
	.byte	W12
@ 071   ----------------------------------------
	.byte		N12   , As4 , v092
	.byte	W12
	.byte		        Gn4 
	.byte	W12
	.byte		N04   , Fn4 
	.byte	W12
	.byte		N12   , Gn4 
	.byte	W12
	.byte		        Ds4 
	.byte	W12
	.byte		N04   , Dn4 
	.byte	W12
	.byte		N12   , Ds4 
	.byte	W12
	.byte		N04   , Dn4 
	.byte	W12
@ 072   ----------------------------------------
	.byte	W96
@ 073   ----------------------------------------
	.byte	W96
@ 074   ----------------------------------------
	.byte	W96
@ 075   ----------------------------------------
	.byte	W96
@ 076   ----------------------------------------
	.byte	W96
@ 077   ----------------------------------------
	.byte	W96
@ 078   ----------------------------------------
	.byte	W96
@ 079   ----------------------------------------
	.byte	W96
@ 080   ----------------------------------------
	.byte	W96
@ 081   ----------------------------------------
	.byte	W96
@ 082   ----------------------------------------
	.byte	W96
@ 083   ----------------------------------------
	.byte	W96
@ 084   ----------------------------------------
	.byte	W96
@ 085   ----------------------------------------
	.byte	W96
@ 086   ----------------------------------------
	.byte	W96
@ 087   ----------------------------------------
	.byte	W96
@ 088   ----------------------------------------
	.byte	W96
@ 089   ----------------------------------------
	.byte	W96
@ 090   ----------------------------------------
	.byte	W96
@ 091   ----------------------------------------
	.byte	W96
@ 092   ----------------------------------------
	.byte	W96
@ 093   ----------------------------------------
	.byte	W96
@ 094   ----------------------------------------
	.byte	W96
@ 095   ----------------------------------------
	.byte	W96
@ 096   ----------------------------------------
	.byte	PATT
	 .word	Jenova_7_052
@ 097   ----------------------------------------
	.byte	PATT
	 .word	Jenova_7_052
@ 098   ----------------------------------------
	.byte	PATT
	 .word	Jenova_7_052
@ 099   ----------------------------------------
	.byte		N12   , Ds4 , v092
	.byte	W12
	.byte		N04   , Dn4 
	.byte	W12
	.byte		N12   , Ds4 
	.byte	W12
	.byte		N04   , Dn4 
	.byte	W12
	.byte		N12   , Cn4 
	.byte	W12
	.byte		N04   , As3 
	.byte	W12
	.byte		N12   , Cn4 
	.byte	W12
	.byte		N04   , As3 
	.byte	W11
	.byte	GOTO
	 .word	Jenova_7_B1
Jenova_7_B2:
	.byte	FINE

@**************** Track 8 (Midi-Chn.8) ****************@

Jenova_8:
	.byte	KEYSH , Jenova_key+0
@ 000   ----------------------------------------
	.byte		VOICE , 29
	.byte		VOL   , 98*Jenova_mvl/mxv
	.byte		PAN   , c_v+0
	.byte	W96
@ 001   ----------------------------------------
	.byte	W96
@ 002   ----------------------------------------
	.byte	W96
@ 003   ----------------------------------------
	.byte	W96
@ 004   ----------------------------------------
	.byte	W96
@ 005   ----------------------------------------
	.byte	W96
@ 006   ----------------------------------------
	.byte	W96
@ 007   ----------------------------------------
	.byte	W96
@ 008   ----------------------------------------
	.byte	W96
@ 009   ----------------------------------------
	.byte	W96
@ 010   ----------------------------------------
	.byte	W96
@ 011   ----------------------------------------
	.byte	W96
Jenova_8_B1:
@ 012   ----------------------------------------
Jenova_8_012:
	.byte		N72   , Dn3 , v108
	.byte	W72
	.byte		N24   , En3 , v127
	.byte	W24
	.byte	PEND
@ 013   ----------------------------------------
	.byte		TIE   , Fn3 , v108
	.byte	W96
@ 014   ----------------------------------------
	.byte	W48
	.byte		EOT   
	.byte		N24   , Dn3 , v127
	.byte	W24
	.byte		        En3 
	.byte	W24
@ 015   ----------------------------------------
Jenova_8_015:
	.byte		N48   , Fn3 , v108
	.byte	W48
	.byte		        Gn3 
	.byte	W48
	.byte	PEND
@ 016   ----------------------------------------
	.byte		TIE   , An3 
	.byte	W96
@ 017   ----------------------------------------
	.byte	W96
@ 018   ----------------------------------------
	.byte	W42
	.byte		EOT   
	.byte	W54
@ 019   ----------------------------------------
	.byte	W96
@ 020   ----------------------------------------
Jenova_8_020:
	.byte		N72   , Fn3 , v108
	.byte	W72
	.byte		N24   , Gn3 
	.byte	W24
	.byte	PEND
@ 021   ----------------------------------------
	.byte		TIE   , Gs3 
	.byte	W96
@ 022   ----------------------------------------
	.byte	W48
	.byte		EOT   
	.byte		N24   , Fn3 
	.byte	W24
	.byte		        Gn3 
	.byte	W24
@ 023   ----------------------------------------
Jenova_8_023:
	.byte		N48   , Gs3 , v108
	.byte	W48
	.byte		        As3 
	.byte	W48
	.byte	PEND
@ 024   ----------------------------------------
	.byte		TIE   , Cn4 
	.byte	W96
@ 025   ----------------------------------------
	.byte	W96
@ 026   ----------------------------------------
	.byte	W42
	.byte		EOT   
	.byte	W54
@ 027   ----------------------------------------
	.byte	W96
@ 028   ----------------------------------------
Jenova_8_028:
	.byte		N72   , Cn4 , v108
	.byte	W72
	.byte		N24   , Bn3 
	.byte	W24
	.byte	PEND
@ 029   ----------------------------------------
	.byte		TIE   , An3 
	.byte	W96
@ 030   ----------------------------------------
	.byte	W24
	.byte		EOT   
	.byte		N24   , Cn4 
	.byte	W24
	.byte		        Bn3 
	.byte	W24
	.byte		        An3 
	.byte	W24
@ 031   ----------------------------------------
Jenova_8_031:
	.byte		N48   , Cn3 , v108
	.byte	W48
	.byte		        Dn3 
	.byte	W48
	.byte	PEND
@ 032   ----------------------------------------
	.byte		TIE   , En3 
	.byte	W96
@ 033   ----------------------------------------
	.byte	W96
@ 034   ----------------------------------------
	.byte	W42
	.byte		EOT   
	.byte	W54
@ 035   ----------------------------------------
	.byte	W96
@ 036   ----------------------------------------
Jenova_8_036:
	.byte		N72   , As3 , v108
	.byte	W72
	.byte		N24   , An3 
	.byte	W24
	.byte	PEND
@ 037   ----------------------------------------
	.byte		TIE   , Gn3 
	.byte	W96
@ 038   ----------------------------------------
	.byte	W24
	.byte		EOT   
	.byte		N24   , As3 
	.byte	W24
	.byte		        An3 
	.byte	W24
	.byte		        Gn3 
	.byte	W24
@ 039   ----------------------------------------
Jenova_8_039:
	.byte		N48   , As2 , v108
	.byte	W48
	.byte		        Cn3 
	.byte	W48
	.byte	PEND
@ 040   ----------------------------------------
	.byte		TIE   , Dn3 
	.byte	W96
@ 041   ----------------------------------------
	.byte	W96
@ 042   ----------------------------------------
	.byte	W42
	.byte		EOT   
	.byte	W54
@ 043   ----------------------------------------
	.byte	W96
@ 044   ----------------------------------------
	.byte	W96
@ 045   ----------------------------------------
	.byte	W96
@ 046   ----------------------------------------
	.byte	W96
@ 047   ----------------------------------------
	.byte	W96
@ 048   ----------------------------------------
	.byte	W96
@ 049   ----------------------------------------
	.byte	W96
@ 050   ----------------------------------------
	.byte	W96
@ 051   ----------------------------------------
	.byte	W96
@ 052   ----------------------------------------
	.byte	W96
@ 053   ----------------------------------------
	.byte	W96
@ 054   ----------------------------------------
	.byte	W96
@ 055   ----------------------------------------
	.byte	W96
@ 056   ----------------------------------------
	.byte	PATT
	 .word	Jenova_8_012
@ 057   ----------------------------------------
	.byte		TIE   , Fn3 , v108
	.byte	W96
@ 058   ----------------------------------------
	.byte	W48
	.byte		EOT   
	.byte		N24   , Dn3 , v127
	.byte	W24
	.byte		        En3 
	.byte	W24
@ 059   ----------------------------------------
	.byte	PATT
	 .word	Jenova_8_015
@ 060   ----------------------------------------
	.byte		TIE   , An3 , v108
	.byte	W96
@ 061   ----------------------------------------
	.byte	W96
@ 062   ----------------------------------------
	.byte	W42
	.byte		EOT   
	.byte	W54
@ 063   ----------------------------------------
	.byte	W96
@ 064   ----------------------------------------
	.byte	PATT
	 .word	Jenova_8_020
@ 065   ----------------------------------------
	.byte		TIE   , Gs3 , v108
	.byte	W96
@ 066   ----------------------------------------
	.byte	W48
	.byte		EOT   
	.byte		N24   , Fn3 
	.byte	W24
	.byte		        Gn3 
	.byte	W24
@ 067   ----------------------------------------
	.byte	PATT
	 .word	Jenova_8_023
@ 068   ----------------------------------------
	.byte		TIE   , Cn4 , v108
	.byte	W96
@ 069   ----------------------------------------
	.byte	W96
@ 070   ----------------------------------------
	.byte	W42
	.byte		EOT   
	.byte	W54
@ 071   ----------------------------------------
	.byte	W96
@ 072   ----------------------------------------
	.byte	PATT
	 .word	Jenova_8_028
@ 073   ----------------------------------------
	.byte		TIE   , An3 , v108
	.byte	W96
@ 074   ----------------------------------------
	.byte	W24
	.byte		EOT   
	.byte		N24   , Cn4 
	.byte	W24
	.byte		        Bn3 
	.byte	W24
	.byte		        An3 
	.byte	W24
@ 075   ----------------------------------------
	.byte	PATT
	 .word	Jenova_8_031
@ 076   ----------------------------------------
	.byte		TIE   , En3 , v108
	.byte	W96
@ 077   ----------------------------------------
	.byte	W96
@ 078   ----------------------------------------
	.byte	W42
	.byte		EOT   
	.byte	W54
@ 079   ----------------------------------------
	.byte	W96
@ 080   ----------------------------------------
	.byte	PATT
	 .word	Jenova_8_036
@ 081   ----------------------------------------
	.byte		TIE   , Gn3 , v108
	.byte	W96
@ 082   ----------------------------------------
	.byte	W24
	.byte		EOT   
	.byte		N24   , As3 
	.byte	W24
	.byte		        An3 
	.byte	W24
	.byte		        Gn3 
	.byte	W24
@ 083   ----------------------------------------
	.byte	PATT
	 .word	Jenova_8_039
@ 084   ----------------------------------------
	.byte		TIE   , Dn3 , v108
	.byte	W96
@ 085   ----------------------------------------
	.byte	W96
@ 086   ----------------------------------------
	.byte	W42
	.byte		EOT   
	.byte	W54
@ 087   ----------------------------------------
	.byte	W96
@ 088   ----------------------------------------
	.byte	W96
@ 089   ----------------------------------------
	.byte	W96
@ 090   ----------------------------------------
	.byte	W96
@ 091   ----------------------------------------
	.byte	W96
@ 092   ----------------------------------------
	.byte	W96
@ 093   ----------------------------------------
	.byte	W96
@ 094   ----------------------------------------
	.byte	W96
@ 095   ----------------------------------------
	.byte	W96
@ 096   ----------------------------------------
	.byte	W96
@ 097   ----------------------------------------
	.byte	W96
@ 098   ----------------------------------------
	.byte	W96
@ 099   ----------------------------------------
	.byte	W92
	.byte	W03
	.byte	GOTO
	 .word	Jenova_8_B1
Jenova_8_B2:
	.byte	FINE

@**************** Track 9 (Midi-Chn.9) ****************@

Jenova_9:
	.byte	KEYSH , Jenova_key+0
@ 000   ----------------------------------------
	.byte		VOICE , 56
	.byte		VOL   , 94*Jenova_mvl/mxv
	.byte		PAN   , c_v+0
	.byte	W96
@ 001   ----------------------------------------
	.byte	W96
@ 002   ----------------------------------------
	.byte	W96
@ 003   ----------------------------------------
	.byte	W96
@ 004   ----------------------------------------
	.byte	W96
@ 005   ----------------------------------------
	.byte	W96
@ 006   ----------------------------------------
	.byte	W96
@ 007   ----------------------------------------
	.byte	W96
@ 008   ----------------------------------------
	.byte	W96
@ 009   ----------------------------------------
	.byte	W96
@ 010   ----------------------------------------
	.byte	W96
@ 011   ----------------------------------------
	.byte	W96
Jenova_9_B1:
@ 012   ----------------------------------------
	.byte	W96
@ 013   ----------------------------------------
	.byte	W96
@ 014   ----------------------------------------
	.byte	W96
@ 015   ----------------------------------------
	.byte	W96
@ 016   ----------------------------------------
	.byte	W96
@ 017   ----------------------------------------
	.byte	W96
@ 018   ----------------------------------------
	.byte	W96
@ 019   ----------------------------------------
	.byte	W96
@ 020   ----------------------------------------
	.byte	W96
@ 021   ----------------------------------------
	.byte	W96
@ 022   ----------------------------------------
	.byte	W96
@ 023   ----------------------------------------
	.byte	W96
@ 024   ----------------------------------------
	.byte	W96
@ 025   ----------------------------------------
	.byte	W96
@ 026   ----------------------------------------
	.byte	W96
@ 027   ----------------------------------------
	.byte	W96
@ 028   ----------------------------------------
Jenova_9_028:
	.byte		N66   , An2 , v076
	.byte	W72
	.byte		N20   , Bn2 
	.byte	W24
	.byte	PEND
@ 029   ----------------------------------------
	.byte		TIE   , Cn3 
	.byte	W96
@ 030   ----------------------------------------
	.byte	W90
	.byte		EOT   
	.byte	W06
@ 031   ----------------------------------------
	.byte	W96
@ 032   ----------------------------------------
Jenova_9_032:
	.byte		N66   , Bn2 , v076
	.byte	W72
	.byte		N20   , An2 
	.byte	W24
	.byte	PEND
@ 033   ----------------------------------------
	.byte		TIE   , Gn2 
	.byte	W96
@ 034   ----------------------------------------
	.byte	W90
	.byte		EOT   
	.byte	W06
@ 035   ----------------------------------------
	.byte	W96
@ 036   ----------------------------------------
Jenova_9_036:
	.byte		N66   , Gn2 , v076
	.byte	W72
	.byte		N20   , An2 
	.byte	W24
	.byte	PEND
@ 037   ----------------------------------------
	.byte		TIE   , As2 
	.byte	W96
@ 038   ----------------------------------------
	.byte	W90
	.byte		EOT   
	.byte	W06
@ 039   ----------------------------------------
	.byte	W96
@ 040   ----------------------------------------
Jenova_9_040:
	.byte		N66   , An2 , v076
	.byte	W72
	.byte		N20   , Gn2 
	.byte	W24
	.byte	PEND
@ 041   ----------------------------------------
	.byte		TIE   , Fn2 
	.byte	W96
@ 042   ----------------------------------------
	.byte	W90
	.byte		EOT   
	.byte	W06
@ 043   ----------------------------------------
	.byte	W96
@ 044   ----------------------------------------
	.byte	W96
@ 045   ----------------------------------------
	.byte	W96
@ 046   ----------------------------------------
	.byte	W96
@ 047   ----------------------------------------
	.byte	W96
@ 048   ----------------------------------------
	.byte	W96
@ 049   ----------------------------------------
	.byte	W96
@ 050   ----------------------------------------
	.byte	W96
@ 051   ----------------------------------------
	.byte	W96
@ 052   ----------------------------------------
	.byte	W96
@ 053   ----------------------------------------
	.byte	W96
@ 054   ----------------------------------------
	.byte	W96
@ 055   ----------------------------------------
	.byte	W96
@ 056   ----------------------------------------
	.byte	W96
@ 057   ----------------------------------------
	.byte	W96
@ 058   ----------------------------------------
	.byte	W96
@ 059   ----------------------------------------
	.byte	W96
@ 060   ----------------------------------------
	.byte	W96
@ 061   ----------------------------------------
	.byte	W96
@ 062   ----------------------------------------
	.byte	W96
@ 063   ----------------------------------------
	.byte	W96
@ 064   ----------------------------------------
	.byte	W96
@ 065   ----------------------------------------
	.byte	W96
@ 066   ----------------------------------------
	.byte	W96
@ 067   ----------------------------------------
	.byte	W96
@ 068   ----------------------------------------
	.byte	W96
@ 069   ----------------------------------------
	.byte	W96
@ 070   ----------------------------------------
	.byte	W96
@ 071   ----------------------------------------
	.byte	W96
@ 072   ----------------------------------------
	.byte	PATT
	 .word	Jenova_9_028
@ 073   ----------------------------------------
	.byte		TIE   , Cn3 , v076
	.byte	W96
@ 074   ----------------------------------------
	.byte	W90
	.byte		EOT   
	.byte	W06
@ 075   ----------------------------------------
	.byte	W96
@ 076   ----------------------------------------
	.byte	PATT
	 .word	Jenova_9_032
@ 077   ----------------------------------------
	.byte		TIE   , Gn2 , v076
	.byte	W96
@ 078   ----------------------------------------
	.byte	W90
	.byte		EOT   
	.byte	W06
@ 079   ----------------------------------------
	.byte	W96
@ 080   ----------------------------------------
	.byte	PATT
	 .word	Jenova_9_036
@ 081   ----------------------------------------
	.byte		TIE   , As2 , v076
	.byte	W96
@ 082   ----------------------------------------
	.byte	W90
	.byte		EOT   
	.byte	W06
@ 083   ----------------------------------------
	.byte	W96
@ 084   ----------------------------------------
	.byte	PATT
	 .word	Jenova_9_040
@ 085   ----------------------------------------
	.byte		TIE   , Fn2 , v076
	.byte	W96
@ 086   ----------------------------------------
	.byte	W90
	.byte		EOT   
	.byte	W06
@ 087   ----------------------------------------
	.byte	W96
@ 088   ----------------------------------------
	.byte	W96
@ 089   ----------------------------------------
	.byte	W96
@ 090   ----------------------------------------
	.byte	W96
@ 091   ----------------------------------------
	.byte	W96
@ 092   ----------------------------------------
	.byte	W96
@ 093   ----------------------------------------
	.byte	W96
@ 094   ----------------------------------------
	.byte	W96
@ 095   ----------------------------------------
	.byte	W96
@ 096   ----------------------------------------
	.byte	W96
@ 097   ----------------------------------------
	.byte	W96
@ 098   ----------------------------------------
	.byte	W96
@ 099   ----------------------------------------
	.byte	W92
	.byte	W03
	.byte	GOTO
	 .word	Jenova_9_B1
Jenova_9_B2:
	.byte	FINE

@**************** Track 10 (Midi-Chn.10) ****************@

Jenova_10:
	.byte	KEYSH , Jenova_key+0
@ 000   ----------------------------------------
	.byte		VOICE , 0
	.byte		VOL   , 98*Jenova_mvl/mxv
	.byte		PAN   , c_v+0
	.byte		N11   , Dn1 , v076
	.byte	W24
	.byte		N11   
	.byte	W24
	.byte		N11   
	.byte	W24
	.byte		N11   
	.byte	W24
@ 001   ----------------------------------------
Jenova_10_001:
	.byte		N11   , Dn1 , v076
	.byte	W24
	.byte		N11   
	.byte	W24
	.byte		N11   
	.byte	W24
	.byte		N11   
	.byte	W24
	.byte	PEND
@ 002   ----------------------------------------
	.byte	PATT
	 .word	Jenova_10_001
@ 003   ----------------------------------------
	.byte	PATT
	 .word	Jenova_10_001
@ 004   ----------------------------------------
	.byte	PATT
	 .word	Jenova_10_001
@ 005   ----------------------------------------
	.byte	PATT
	 .word	Jenova_10_001
@ 006   ----------------------------------------
	.byte	PATT
	 .word	Jenova_10_001
@ 007   ----------------------------------------
	.byte	PATT
	 .word	Jenova_10_001
@ 008   ----------------------------------------
	.byte	PATT
	 .word	Jenova_10_001
@ 009   ----------------------------------------
	.byte	PATT
	 .word	Jenova_10_001
@ 010   ----------------------------------------
	.byte	PATT
	 .word	Jenova_10_001
@ 011   ----------------------------------------
	.byte	PATT
	 .word	Jenova_10_001
Jenova_10_B1:
@ 012   ----------------------------------------
Jenova_10_012:
	.byte		N11   , Dn1 , v127
	.byte		N20   , An2 
	.byte	W24
	.byte		N11   , Dn1 , v076
	.byte	W24
	.byte		N11   
	.byte	W24
	.byte		N11   
	.byte	W24
	.byte	PEND
@ 013   ----------------------------------------
	.byte	PATT
	 .word	Jenova_10_001
@ 014   ----------------------------------------
	.byte	PATT
	 .word	Jenova_10_001
@ 015   ----------------------------------------
	.byte	PATT
	 .word	Jenova_10_001
@ 016   ----------------------------------------
	.byte	PATT
	 .word	Jenova_10_001
@ 017   ----------------------------------------
	.byte	PATT
	 .word	Jenova_10_001
@ 018   ----------------------------------------
	.byte	PATT
	 .word	Jenova_10_001
@ 019   ----------------------------------------
	.byte	PATT
	 .word	Jenova_10_001
@ 020   ----------------------------------------
	.byte	PATT
	 .word	Jenova_10_012
@ 021   ----------------------------------------
	.byte	PATT
	 .word	Jenova_10_001
@ 022   ----------------------------------------
	.byte	PATT
	 .word	Jenova_10_001
@ 023   ----------------------------------------
	.byte	PATT
	 .word	Jenova_10_001
@ 024   ----------------------------------------
	.byte	PATT
	 .word	Jenova_10_001
@ 025   ----------------------------------------
	.byte	PATT
	 .word	Jenova_10_001
@ 026   ----------------------------------------
	.byte	PATT
	 .word	Jenova_10_001
@ 027   ----------------------------------------
	.byte	PATT
	 .word	Jenova_10_001
@ 028   ----------------------------------------
	.byte	PATT
	 .word	Jenova_10_001
@ 029   ----------------------------------------
	.byte	PATT
	 .word	Jenova_10_001
@ 030   ----------------------------------------
	.byte	PATT
	 .word	Jenova_10_001
@ 031   ----------------------------------------
	.byte	PATT
	 .word	Jenova_10_001
@ 032   ----------------------------------------
	.byte	PATT
	 .word	Jenova_10_001
@ 033   ----------------------------------------
	.byte	PATT
	 .word	Jenova_10_001
@ 034   ----------------------------------------
	.byte	PATT
	 .word	Jenova_10_001
@ 035   ----------------------------------------
	.byte	PATT
	 .word	Jenova_10_001
@ 036   ----------------------------------------
	.byte	PATT
	 .word	Jenova_10_001
@ 037   ----------------------------------------
	.byte	PATT
	 .word	Jenova_10_001
@ 038   ----------------------------------------
	.byte	PATT
	 .word	Jenova_10_001
@ 039   ----------------------------------------
	.byte	PATT
	 .word	Jenova_10_001
@ 040   ----------------------------------------
	.byte	PATT
	 .word	Jenova_10_001
@ 041   ----------------------------------------
	.byte	PATT
	 .word	Jenova_10_001
@ 042   ----------------------------------------
	.byte	PATT
	 .word	Jenova_10_001
@ 043   ----------------------------------------
	.byte	PATT
	 .word	Jenova_10_001
@ 044   ----------------------------------------
	.byte		N11   , Cn1 , v127
	.byte		N20   , An2 
	.byte	W12
	.byte		N11   , Dn1 , v076
	.byte	W12
	.byte		        Cs1 
	.byte	W12
	.byte		        Cn1 
	.byte	W12
	.byte		        Dn1 
	.byte	W12
	.byte		        Cs1 
	.byte	W12
	.byte		        Cn1 
	.byte	W12
	.byte		        Dn1 
	.byte	W12
@ 045   ----------------------------------------
Jenova_10_045:
	.byte		N11   , Cs1 , v076
	.byte	W12
	.byte		        Cn1 
	.byte	W12
	.byte		        Dn1 
	.byte	W12
	.byte		        Cs1 
	.byte	W12
	.byte		        Cn1 
	.byte	W12
	.byte		        Dn1 
	.byte	W12
	.byte		        Cs1 
	.byte	W12
	.byte		        Dn1 
	.byte	W12
	.byte	PEND
@ 046   ----------------------------------------
Jenova_10_046:
	.byte		N11   , Cn1 , v076
	.byte	W12
	.byte		        Dn1 
	.byte	W12
	.byte		        Cs1 
	.byte	W12
	.byte		        Cn1 
	.byte	W12
	.byte		        Dn1 
	.byte	W12
	.byte		        Cs1 
	.byte	W12
	.byte		        Cn1 
	.byte	W12
	.byte		        Dn1 
	.byte	W12
	.byte	PEND
@ 047   ----------------------------------------
	.byte	PATT
	 .word	Jenova_10_045
@ 048   ----------------------------------------
	.byte	PATT
	 .word	Jenova_10_046
@ 049   ----------------------------------------
	.byte	PATT
	 .word	Jenova_10_045
@ 050   ----------------------------------------
	.byte	PATT
	 .word	Jenova_10_046
@ 051   ----------------------------------------
	.byte	PATT
	 .word	Jenova_10_045
@ 052   ----------------------------------------
Jenova_10_052:
	.byte		N11   , Dn1 , v076
	.byte		N20   , An2 
	.byte	W24
	.byte		N11   , Dn1 
	.byte	W24
	.byte		N11   
	.byte	W24
	.byte		N11   
	.byte	W24
	.byte	PEND
@ 053   ----------------------------------------
	.byte	PATT
	 .word	Jenova_10_001
@ 054   ----------------------------------------
	.byte	PATT
	 .word	Jenova_10_001
@ 055   ----------------------------------------
	.byte	PATT
	 .word	Jenova_10_001
@ 056   ----------------------------------------
	.byte	PATT
	 .word	Jenova_10_052
@ 057   ----------------------------------------
	.byte	PATT
	 .word	Jenova_10_001
@ 058   ----------------------------------------
	.byte	PATT
	 .word	Jenova_10_001
@ 059   ----------------------------------------
	.byte	PATT
	 .word	Jenova_10_001
@ 060   ----------------------------------------
	.byte	PATT
	 .word	Jenova_10_001
@ 061   ----------------------------------------
	.byte	PATT
	 .word	Jenova_10_001
@ 062   ----------------------------------------
	.byte	PATT
	 .word	Jenova_10_001
@ 063   ----------------------------------------
	.byte	PATT
	 .word	Jenova_10_001
@ 064   ----------------------------------------
	.byte	PATT
	 .word	Jenova_10_052
@ 065   ----------------------------------------
	.byte	PATT
	 .word	Jenova_10_001
@ 066   ----------------------------------------
	.byte	PATT
	 .word	Jenova_10_001
@ 067   ----------------------------------------
	.byte	PATT
	 .word	Jenova_10_001
@ 068   ----------------------------------------
	.byte	PATT
	 .word	Jenova_10_001
@ 069   ----------------------------------------
	.byte	PATT
	 .word	Jenova_10_001
@ 070   ----------------------------------------
	.byte	PATT
	 .word	Jenova_10_001
@ 071   ----------------------------------------
	.byte	PATT
	 .word	Jenova_10_001
@ 072   ----------------------------------------
	.byte	PATT
	 .word	Jenova_10_001
@ 073   ----------------------------------------
	.byte	PATT
	 .word	Jenova_10_001
@ 074   ----------------------------------------
	.byte	PATT
	 .word	Jenova_10_001
@ 075   ----------------------------------------
	.byte	PATT
	 .word	Jenova_10_001
@ 076   ----------------------------------------
	.byte	PATT
	 .word	Jenova_10_001
@ 077   ----------------------------------------
	.byte	PATT
	 .word	Jenova_10_001
@ 078   ----------------------------------------
	.byte	PATT
	 .word	Jenova_10_001
@ 079   ----------------------------------------
	.byte	PATT
	 .word	Jenova_10_001
@ 080   ----------------------------------------
	.byte	PATT
	 .word	Jenova_10_001
@ 081   ----------------------------------------
	.byte	PATT
	 .word	Jenova_10_001
@ 082   ----------------------------------------
	.byte	PATT
	 .word	Jenova_10_001
@ 083   ----------------------------------------
	.byte	PATT
	 .word	Jenova_10_001
@ 084   ----------------------------------------
	.byte	PATT
	 .word	Jenova_10_001
@ 085   ----------------------------------------
	.byte	PATT
	 .word	Jenova_10_001
@ 086   ----------------------------------------
	.byte	PATT
	 .word	Jenova_10_001
@ 087   ----------------------------------------
	.byte	PATT
	 .word	Jenova_10_001
@ 088   ----------------------------------------
	.byte		N11   , Cn1 , v076
	.byte		N20   , An2 
	.byte	W12
	.byte		N11   , Dn1 
	.byte	W12
	.byte		        Cs1 
	.byte	W12
	.byte		        Cn1 
	.byte	W12
	.byte		        Dn1 
	.byte	W12
	.byte		        Cs1 
	.byte	W12
	.byte		        Cn1 
	.byte	W12
	.byte		        Dn1 
	.byte	W12
@ 089   ----------------------------------------
	.byte	PATT
	 .word	Jenova_10_045
@ 090   ----------------------------------------
	.byte	PATT
	 .word	Jenova_10_046
@ 091   ----------------------------------------
	.byte	PATT
	 .word	Jenova_10_045
@ 092   ----------------------------------------
	.byte	PATT
	 .word	Jenova_10_046
@ 093   ----------------------------------------
	.byte	PATT
	 .word	Jenova_10_045
@ 094   ----------------------------------------
	.byte	PATT
	 .word	Jenova_10_046
@ 095   ----------------------------------------
	.byte	PATT
	 .word	Jenova_10_045
@ 096   ----------------------------------------
	.byte	PATT
	 .word	Jenova_10_012
@ 097   ----------------------------------------
	.byte	PATT
	 .word	Jenova_10_001
@ 098   ----------------------------------------
	.byte	PATT
	 .word	Jenova_10_001
@ 099   ----------------------------------------
	.byte		N11   , Dn1 , v076
	.byte	W24
	.byte		N11   
	.byte	W24
	.byte		N11   
	.byte	W24
	.byte		N11   
	.byte	W23
	.byte	GOTO
	 .word	Jenova_10_B1
Jenova_10_B2:
	.byte	FINE

@******************************************************@
	.align	2

Jenova:
	.byte	10	@ NumTrks
	.byte	0	@ NumBlks
	.byte	Jenova_pri	@ Priority
	.byte	Jenova_rev	@ Reverb.

	.word	Jenova_grp

	.word	Jenova_1
	.word	Jenova_2
	.word	Jenova_3
	.word	Jenova_4
	.word	Jenova_5
	.word	Jenova_6
	.word	Jenova_7
	.word	Jenova_8
	.word	Jenova_9
	.word	Jenova_10

	.end
